<svg id="visual" viewBox="0 0 1600 1800" width="1600" height="1800" xmlns="http://www.w3.org/2000/svg" xmlns:xlink="http://www.w3.org/1999/xlink" version="1.1"><path d="M0 397L53.3 415C106.7 433 213.3 469 320 475C426.7 481 533.3 457 640 427C746.7 397 853.3 361 960 331C1066.7 301 1173.3 277 1280 262C1386.7 247 1493.3 241 1546.7 238L1600 235L1600 0L1546.7 0C1493.3 0 1386.7 0 1280 0C1173.3 0 1066.7 0 960 0C853.3 0 746.7 0 640 0C533.3 0 426.7 0 320 0C213.3 0 106.7 0 53.3 0L0 0Z" fill="#c5cdef"></path><path d="M0 649L53.3 655C106.7 661 213.3 673 320 679C426.7 685 533.3 685 640 667C746.7 649 853.3 613 960 565C1066.7 517 1173.3 457 1280 445C1386.7 433 1493.3 469 1546.7 487L1600 505L1600 233L1546.7 236C1493.3 239 1386.7 245 1280 260C1173.3 275 1066.7 299 960 329C853.3 359 746.7 395 640 425C533.3 455 426.7 479 320 473C213.3 467 106.7 431 53.3 413L0 395Z" fill="#b0b7d6"></path><path d="M0 721L53.3 727C106.7 733 213.3 745 320 763C426.7 781 533.3 805 640 796C746.7 787 853.3 745 960 685C1066.7 625 1173.3 547 1280 535C1386.7 523 1493.3 577 1546.7 604L1600 631L1600 503L1546.7 485C1493.3 467 1386.7 431 1280 443C1173.3 455 1066.7 515 960 563C853.3 611 746.7 647 640 665C533.3 683 426.7 683 320 677C213.3 671 106.7 659 53.3 653L0 647Z" fill="#9ba1be"></path><path d="M0 775L53.3 781C106.7 787 213.3 799 320 820C426.7 841 533.3 871 640 865C746.7 859 853.3 817 960 766C1066.7 715 1173.3 655 1280 643C1386.7 631 1493.3 667 1546.7 685L1600 703L1600 629L1546.7 602C1493.3 575 1386.7 521 1280 533C1173.3 545 1066.7 623 960 683C853.3 743 746.7 785 640 794C533.3 803 426.7 779 320 761C213.3 743 106.7 731 53.3 725L0 719Z" fill="#878ca6"></path><path d="M0 991L53.3 991C106.7 991 213.3 991 320 997C426.7 1003 533.3 1015 640 1012C746.7 1009 853.3 991 960 958C1066.7 925 1173.3 877 1280 868C1386.7 859 1493.3 889 1546.7 904L1600 919L1600 701L1546.7 683C1493.3 665 1386.7 629 1280 641C1173.3 653 1066.7 713 960 764C853.3 815 746.7 857 640 863C533.3 869 426.7 839 320 818C213.3 797 106.7 785 53.3 779L0 773Z" fill="#74788e"></path><path d="M0 1279L53.3 1282C106.7 1285 213.3 1291 320 1294C426.7 1297 533.3 1297 640 1318C746.7 1339 853.3 1381 960 1384C1066.7 1387 1173.3 1351 1280 1330C1386.7 1309 1493.3 1303 1546.7 1300L1600 1297L1600 917L1546.7 902C1493.3 887 1386.7 857 1280 866C1173.3 875 1066.7 923 960 956C853.3 989 746.7 1007 640 1010C533.3 1013 426.7 1001 320 995C213.3 989 106.7 989 53.3 989L0 989Z" fill="#606478"></path><path d="M0 1369L53.3 1366C106.7 1363 213.3 1357 320 1363C426.7 1369 533.3 1387 640 1411C746.7 1435 853.3 1465 960 1468C1066.7 1471 1173.3 1447 1280 1429C1386.7 1411 1493.3 1399 1546.7 1393L1600 1387L1600 1295L1546.7 1298C1493.3 1301 1386.7 1307 1280 1328C1173.3 1349 1066.7 1385 960 1382C853.3 1379 746.7 1337 640 1316C533.3 1295 426.7 1295 320 1292C213.3 1289 106.7 1283 53.3 1280L0 1277Z" fill="#4e5162"></path><path d="M0 1513L53.3 1498C106.7 1483 213.3 1453 320 1450C426.7 1447 533.3 1471 640 1498C746.7 1525 853.3 1555 960 1564C1066.7 1573 1173.3 1561 1280 1549C1386.7 1537 1493.3 1525 1546.7 1519L1600 1513L1600 1385L1546.7 1391C1493.3 1397 1386.7 1409 1280 1427C1173.3 1445 1066.7 1469 960 1466C853.3 1463 746.7 1433 640 1409C533.3 1385 426.7 1367 320 1361C213.3 1355 106.7 1361 53.3 1364L0 1367Z" fill="#3c3f4c"></path><path d="M0 1585L53.3 1585C106.7 1585 213.3 1585 320 1594C426.7 1603 533.3 1621 640 1636C746.7 1651 853.3 1663 960 1666C1066.7 1669 1173.3 1663 1280 1654C1386.7 1645 1493.3 1633 1546.7 1627L1600 1621L1600 1511L1546.7 1517C1493.3 1523 1386.7 1535 1280 1547C1173.3 1559 1066.7 1571 960 1562C853.3 1553 746.7 1523 640 1496C533.3 1469 426.7 1445 320 1448C213.3 1451 106.7 1481 53.3 1496L0 1511Z" fill="#2b2d38"></path><path d="M0 1801L53.3 1801C106.7 1801 213.3 1801 320 1801C426.7 1801 533.3 1801 640 1801C746.7 1801 853.3 1801 960 1801C1066.7 1801 1173.3 1801 1280 1801C1386.7 1801 1493.3 1801 1546.7 1801L1600 1801L1600 1619L1546.7 1625C1493.3 1631 1386.7 1643 1280 1652C1173.3 1661 1066.7 1667 960 1664C853.3 1661 746.7 1649 640 1634C533.3 1619 426.7 1601 320 1592C213.3 1583 106.7 1583 53.3 1583L0 1583Z" fill="#1b1d25"></path></svg>