<svg id="visual" viewBox="0 0 500 50" width="500" height="50" xmlns="http://www.w3.org/2000/svg" xmlns:xlink="http://www.w3.org/1999/xlink" version="1.1"><path d="M0 0L10.5 2.2C21 4.3 42 8.7 62.8 11.7C83.7 14.7 104.3 16.3 125.2 16.7C146 17 167 16 187.8 13C208.7 10 229.3 5 250.2 6.5C271 8 292 16 312.8 19.3C333.7 22.7 354.3 21.3 375.2 18.5C396 15.7 417 11.3 437.8 8.8C458.7 6.3 479.3 5.7 489.7 5.3L500 5L500 0L489.7 0C479.3 0 458.7 0 437.8 0C417 0 396 0 375.2 0C354.3 0 333.7 0 312.8 0C292 0 271 0 250.2 0C229.3 0 208.7 0 187.8 0C167 0 146 0 125.2 0C104.3 0 83.7 0 62.8 0C42 0 21 0 10.5 0L0 0Z" fill="#C5CDEF"></path></svg>