<svg id="visual" viewBox="0 0 500 50" width="500" height="50" xmlns="http://www.w3.org/2000/svg" xmlns:xlink="http://www.w3.org/1999/xlink" version="1.1"><path d="M0 18L8.3 18.5C16.7 19 33.3 20 50 17.7C66.7 15.3 83.3 9.7 100 8.5C116.7 7.3 133.3 10.7 150 13.8C166.7 17 183.3 20 200 19.5C216.7 19 233.3 15 250 14.7C266.7 14.3 283.3 17.7 300 18.3C316.7 19 333.3 17 350 14.5C366.7 12 383.3 9 400 9C416.7 9 433.3 12 450 14.8C466.7 17.7 483.3 20.3 491.7 21.7L500 23L500 51L491.7 51C483.3 51 466.7 51 450 51C433.3 51 416.7 51 400 51C383.3 51 366.7 51 350 51C333.3 51 316.7 51 300 51C283.3 51 266.7 51 250 51C233.3 51 216.7 51 200 51C183.3 51 166.7 51 150 51C133.3 51 116.7 51 100 51C83.3 51 66.7 51 50 51C33.3 51 16.7 51 8.3 51L0 51Z" fill="#5169c5"></path><path d="M0 32L8.3 32.5C16.7 33 33.3 34 50 32.3C66.7 30.7 83.3 26.3 100 25.7C116.7 25 133.3 28 150 30.2C166.7 32.3 183.3 33.7 200 31.5C216.7 29.3 233.3 23.7 250 20.2C266.7 16.7 283.3 15.3 300 17.8C316.7 20.3 333.3 26.7 350 27.3C366.7 28 383.3 23 400 21.7C416.7 20.3 433.3 22.7 450 23C466.7 23.3 483.3 21.7 491.7 20.8L500 20L500 51L491.7 51C483.3 51 466.7 51 450 51C433.3 51 416.7 51 400 51C383.3 51 366.7 51 350 51C333.3 51 316.7 51 300 51C283.3 51 266.7 51 250 51C233.3 51 216.7 51 200 51C183.3 51 166.7 51 150 51C133.3 51 116.7 51 100 51C83.3 51 66.7 51 50 51C33.3 51 16.7 51 8.3 51L0 51Z" fill="#6f7dce"></path><path d="M0 32L8.3 34.3C16.7 36.7 33.3 41.3 50 43.5C66.7 45.7 83.3 45.3 100 45.3C116.7 45.3 133.3 45.7 150 44.8C166.7 44 183.3 42 200 39.5C216.7 37 233.3 34 250 32.5C266.7 31 283.3 31 300 31C316.7 31 333.3 31 350 31.7C366.7 32.3 383.3 33.7 400 35.2C416.7 36.7 433.3 38.3 450 38.7C466.7 39 483.3 38 491.7 37.5L500 37L500 51L491.7 51C483.3 51 466.7 51 450 51C433.3 51 416.7 51 400 51C383.3 51 366.7 51 350 51C333.3 51 316.7 51 300 51C283.3 51 266.7 51 250 51C233.3 51 216.7 51 200 51C183.3 51 166.7 51 150 51C133.3 51 116.7 51 100 51C83.3 51 66.7 51 50 51C33.3 51 16.7 51 8.3 51L0 51Z" fill="#8991d6"></path></svg>