<svg width="500" height="50" viewBox="0 0 500 50" fill="none" xmlns="http://www.w3.org/2000/svg">
<path d="M0 45L10.5 43.3C21 41.7 42 38.3 62.8 38.3C83.7 38.3 104.3 41.7 125.2 43.8C146 46 167 47 187.8 46C208.7 45 229.3 42 250.2 41.3C271 40.7 292 42.3 312.8 41.3C333.7 40.3 354.3 36.7 375.2 35.2C396 33.7 417 34.3 437.8 34.7C458.7 35 479.3 35 489.7 35H500V0H489.7C479.3 0 458.7 0 437.8 0C417 0 396 0 375.2 0C354.3 0 333.7 0 312.8 0C292 0 271 0 250.2 0C229.3 0 208.7 0 187.8 0C167 0 146 0 125.2 0C104.3 0 83.7 0 62.8 0C42 0 21 0 10.5 0H0V45Z" fill="#2F313A"/>
<path d="M0 25.5L10.5 24.5C21 23.5 42 21.5 62.8 23C83.7 24.5 104.3 29.5 125.2 31.7C146 33.8 167 33.2 187.8 30.2C208.7 27.2 229.3 21.8 250.2 19.7C271 17.5 292 18.5 312.8 21.8C333.7 25.2 351.486 27.971 376.5 29C399.724 29.9554 412.758 27.7779 436 27.5C456.97 27.2493 468.999 30.8524 489.7 27.5C493.745 26.845 500 26.7539 500 26.7539V1.5H489.7C479.3 1.5 458.7 1.5 437.8 1.5C417 1.5 396 1.5 375.2 1.5C354.3 1.5 333.7 1.5 312.8 1.5C292 1.5 271 1.5 250.2 1.5C229.3 1.5 208.7 1.5 187.8 1.5C167 1.5 146 1.5 125.2 1.5C104.3 1.5 83.7 1.5 62.8 1.5C42 1.5 21 1.5 10.5 1.5H0V25.5Z" fill="#4D4F5D"/>
<path d="M0 4L10.5 3.7C21 3.3 42 2.7 62.8 3C83.7 3.3 104.3 4.7 125.2 8.3C146 12 167 18 187.8 17.5C208.7 17 229.3 10 250.2 9.7C271 9.3 292 15.7 312.8 15.3C333.7 15 354.3 8 375.2 5.7C396 3.3 417 5.7 437.8 9.3C458.7 13 479.3 18 489.7 20.5L500 23V0H489.7C479.3 0 458.7 0 437.8 0C417 0 396 0 375.2 0C354.3 0 333.7 0 312.8 0C292 0 271 0 250.2 0C229.3 0 208.7 0 187.8 0C167 0 146 0 125.2 0C104.3 0 83.7 0 62.8 0C42 0 21 0 10.5 0H0V4Z" fill="#6D6E82"/>
</svg>
