<svg id="visual" viewBox="0 0 500 50" width="500" height="50" xmlns="http://www.w3.org/2000/svg" xmlns:xlink="http://www.w3.org/1999/xlink" version="1.1"><path d="M0 24L10.5 21.5C21 19 42 14 62.8 16.8C83.7 19.7 104.3 30.3 125.2 32.3C146 34.3 167 27.7 187.8 26.7C208.7 25.7 229.3 30.3 250.2 33C271 35.7 292 36.3 312.8 31C333.7 25.7 354.3 14.3 375.2 15.7C396 17 417 31 437.8 32.2C458.7 33.3 479.3 21.7 489.7 15.8L500 10L500 51L489.7 51C479.3 51 458.7 51 437.8 51C417 51 396 51 375.2 51C354.3 51 333.7 51 312.8 51C292 51 271 51 250.2 51C229.3 51 208.7 51 187.8 51C167 51 146 51 125.2 51C104.3 51 83.7 51 62.8 51C42 51 21 51 10.5 51L0 51Z" fill="#C5CDEF"></path></svg>