<svg width="1500" height="1800" viewBox="0 0 1500 1800" fill="none" xmlns="http://www.w3.org/2000/svg">
<g opacity="0.05">
<rect x="260.364" y="884.678" width="90.4711" height="13.2397" rx="6.61983" transform="rotate(-180 260.364 884.678)" fill="#3D4873"/>
<rect x="291.992" y="858.198" width="145.636" height="13.2397" rx="6.61983" transform="rotate(-180 291.992 858.198)" fill="#3D4873"/>
<rect x="317" y="831.719" width="143.43" height="13.2397" rx="6.61983" transform="rotate(-180 317 831.719)" fill="#3D4873"/>
<rect x="169.893" y="831.719" width="30.8926" height="13.2397" rx="6.61983" transform="rotate(-180 169.893 831.719)" fill="#3D4873"/>
<rect x="283.901" y="844.959" width="73.5537" height="13.2397" rx="6.61983" transform="rotate(-180 283.901 844.959)" fill="#3D4873"/>
<rect x="166.215" y="884.678" width="13.2397" height="13.2397" rx="6.61983" transform="rotate(-180 166.215 884.678)" fill="#3D4873"/>
<rect x="308.909" y="858.198" width="13.2397" height="13.2397" rx="6.61983" transform="rotate(-180 308.909 858.198)" fill="#3D4873"/>
<rect x="256.686" y="871.438" width="50.7521" height="13.2397" rx="6.61983" transform="rotate(-180 256.686 871.438)" fill="#3D4873"/>
<rect x="295.669" y="871.438" width="52.9587" height="13.2397" rx="6.61983" transform="rotate(-180 295.669 871.438)" fill="#FEFEFE"/>
<rect x="230.942" y="871.438" width="63.9917" height="13.2397" rx="6.61983" transform="rotate(-180 230.942 871.438)" fill="#FEFEFE"/>
<rect x="276.545" y="818.479" width="50.7521" height="13.2397" rx="6.61983" transform="rotate(-180 276.545 818.479)" fill="#3D4873"/>
<rect x="315.529" y="818.479" width="52.9587" height="13.2397" rx="6.61983" transform="rotate(-180 315.529 818.479)" fill="#FEFEFE"/>
<rect x="250.802" y="818.479" width="63.9917" height="13.2397" rx="6.61983" transform="rotate(-180 250.802 818.479)" fill="#FEFEFE"/>
<rect x="274.339" y="805.24" width="70.6116" height="13.2397" rx="6.61983" transform="rotate(-180 274.339 805.24)" fill="#3D4873"/>
</g>
<g opacity="0.05">
<rect x="383.682" y="812.339" width="45.2355" height="6.61983" rx="3.30992" transform="rotate(-180 383.682 812.339)" fill="#3D4873"/>
<rect x="399.496" y="799.099" width="72.8182" height="6.61983" rx="3.30992" transform="rotate(-180 399.496 799.099)" fill="#3D4873"/>
<rect x="412" y="785.859" width="71.7149" height="6.61983" rx="3.30992" transform="rotate(-180 412 785.859)" fill="#3D4873"/>
<rect x="338.446" y="785.859" width="15.4463" height="6.61983" rx="3.30992" transform="rotate(-180 338.446 785.859)" fill="#3D4873"/>
<rect x="395.45" y="792.479" width="36.7769" height="6.61983" rx="3.30992" transform="rotate(-180 395.45 792.479)" fill="#3D4873"/>
<rect x="336.607" y="812.339" width="6.61983" height="6.61983" rx="3.30992" transform="rotate(-180 336.607 812.339)" fill="#3D4873"/>
<rect x="407.955" y="799.099" width="6.61983" height="6.61983" rx="3.30992" transform="rotate(-180 407.955 799.099)" fill="#3D4873"/>
<rect x="381.843" y="805.719" width="25.376" height="6.61983" rx="3.30992" transform="rotate(-180 381.843 805.719)" fill="#3D4873"/>
<rect x="401.335" y="805.719" width="26.4793" height="6.61983" rx="3.30992" transform="rotate(-180 401.335 805.719)" fill="#FEFEFE"/>
<rect x="368.971" y="805.719" width="31.9959" height="6.61983" rx="3.30992" transform="rotate(-180 368.971 805.719)" fill="#FEFEFE"/>
<rect x="391.773" y="779.24" width="25.376" height="6.61983" rx="3.30992" transform="rotate(-180 391.773 779.24)" fill="#3D4873"/>
<rect x="411.264" y="779.24" width="26.4793" height="6.61983" rx="3.30992" transform="rotate(-180 411.264 779.24)" fill="#FEFEFE"/>
<rect x="378.901" y="779.24" width="31.9959" height="6.61983" rx="3.30992" transform="rotate(-180 378.901 779.24)" fill="#FEFEFE"/>
<rect x="390.669" y="772.62" width="35.3058" height="6.61983" rx="3.30992" transform="rotate(-180 390.669 772.62)" fill="#3D4873"/>
</g>
<g opacity="0.05">
<rect x="1220.64" y="806.686" width="66.0744" height="9.66942" rx="4.83471" transform="rotate(-180 1220.64 806.686)" fill="#3D4873"/>
<rect x="1243.74" y="787.347" width="106.364" height="9.66942" rx="4.83471" transform="rotate(-180 1243.74 787.347)" fill="#3D4873"/>
<rect x="1262" y="768.008" width="104.752" height="9.66942" rx="4.83471" transform="rotate(-180 1262 768.008)" fill="#3D4873"/>
<rect x="1154.56" y="768.008" width="22.562" height="9.66942" rx="4.83471" transform="rotate(-180 1154.56 768.008)" fill="#3D4873"/>
<rect x="1237.83" y="777.678" width="53.719" height="9.66942" rx="4.83471" transform="rotate(-180 1237.83 777.678)" fill="#3D4873"/>
<rect x="1151.88" y="806.686" width="9.66942" height="9.66942" rx="4.83471" transform="rotate(-180 1151.88 806.686)" fill="#3D4873"/>
<rect x="1256.09" y="787.347" width="9.66942" height="9.66942" rx="4.83471" transform="rotate(-180 1256.09 787.347)" fill="#3D4873"/>
<rect x="1217.95" y="797.017" width="37.0661" height="9.66942" rx="4.83471" transform="rotate(-180 1217.95 797.017)" fill="#3D4873"/>
<rect x="1246.42" y="797.017" width="38.6777" height="9.66942" rx="4.83471" transform="rotate(-180 1246.42 797.017)" fill="#FEFEFE"/>
<rect x="1199.15" y="797.017" width="46.7355" height="9.66942" rx="4.83471" transform="rotate(-180 1199.15 797.017)" fill="#FEFEFE"/>
<rect x="1232.45" y="758.339" width="37.0661" height="9.66942" rx="4.83471" transform="rotate(-180 1232.45 758.339)" fill="#3D4873"/>
<rect x="1260.93" y="758.339" width="38.6777" height="9.66942" rx="4.83471" transform="rotate(-180 1260.93 758.339)" fill="#FEFEFE"/>
<rect x="1213.65" y="758.339" width="46.7355" height="9.66942" rx="4.83471" transform="rotate(-180 1213.65 758.339)" fill="#FEFEFE"/>
<rect x="1230.84" y="748.669" width="51.5702" height="9.66942" rx="4.83471" transform="rotate(-180 1230.84 748.669)" fill="#3D4873"/>
</g>
<g opacity="0.05">
<rect x="712.728" y="279.265" width="80.3058" height="11.7521" rx="5.87603" transform="rotate(-180 712.728 279.265)" fill="#3D4873"/>
<rect x="740.802" y="255.76" width="129.273" height="11.7521" rx="5.87603" transform="rotate(-180 740.802 255.76)" fill="#3D4873"/>
<rect x="763" y="232.256" width="127.314" height="11.7521" rx="5.87603" transform="rotate(-180 763 232.256)" fill="#3D4873"/>
<rect x="632.421" y="232.256" width="27.4215" height="11.7521" rx="5.87603" transform="rotate(-180 632.421 232.256)" fill="#3D4873"/>
<rect x="733.62" y="244.008" width="65.2892" height="11.7521" rx="5.87603" transform="rotate(-180 733.62 244.008)" fill="#3D4873"/>
<rect x="629.157" y="279.265" width="11.7521" height="11.7521" rx="5.87603" transform="rotate(-180 629.157 279.265)" fill="#3D4873"/>
<rect x="755.818" y="255.76" width="11.7521" height="11.7521" rx="5.87603" transform="rotate(-180 755.818 255.76)" fill="#3D4873"/>
<rect x="709.463" y="267.513" width="45.0496" height="11.7521" rx="5.87603" transform="rotate(-180 709.463 267.513)" fill="#3D4873"/>
<rect x="744.066" y="267.512" width="47.0083" height="11.7521" rx="5.87603" transform="rotate(-180 744.066 267.512)" fill="#FEFEFE"/>
<rect x="686.611" y="267.513" width="56.8016" height="11.7521" rx="5.87603" transform="rotate(-180 686.611 267.513)" fill="#FEFEFE"/>
<rect x="727.091" y="220.504" width="45.0496" height="11.7521" rx="5.87603" transform="rotate(-180 727.091 220.504)" fill="#3D4873"/>
<rect x="761.694" y="220.504" width="47.0083" height="11.7521" rx="5.87603" transform="rotate(-180 761.694 220.504)" fill="#FEFEFE"/>
<rect x="704.239" y="220.504" width="56.8016" height="11.7521" rx="5.87603" transform="rotate(-180 704.239 220.504)" fill="#FEFEFE"/>
<rect x="725.132" y="208.752" width="62.6777" height="11.7521" rx="5.87603" transform="rotate(-180 725.132 208.752)" fill="#3D4873"/>
</g>
<g opacity="0.05">
<rect x="834.556" y="593" width="66.3808" height="9.71427" rx="4.85714" fill="#3D4873"/>
<rect x="811.349" y="612.428" width="106.857" height="9.71427" rx="4.85714" fill="#3D4873"/>
<rect x="793" y="631.857" width="105.238" height="9.71427" rx="4.85714" fill="#3D4873"/>
<rect x="900.937" y="631.857" width="22.6666" height="9.71427" rx="4.85714" fill="#3D4873"/>
<rect x="817.285" y="622.143" width="53.9682" height="9.71427" rx="4.85714" fill="#3D4873"/>
<rect x="903.635" y="593" width="9.71427" height="9.71427" rx="4.85714" fill="#3D4873"/>
<rect x="798.936" y="612.428" width="9.71427" height="9.71427" rx="4.85714" fill="#3D4873"/>
<rect x="837.254" y="602.714" width="37.238" height="9.71427" rx="4.85714" fill="#3D4873"/>
<rect x="808.651" y="602.714" width="38.8571" height="9.71427" rx="4.85714" fill="#FEFEFE"/>
<rect x="856.143" y="602.714" width="46.9523" height="9.71427" rx="4.85714" fill="#FEFEFE"/>
<rect x="822.683" y="641.571" width="37.238" height="9.71427" rx="4.85714" fill="#3D4873"/>
<rect x="794.079" y="641.572" width="38.8571" height="9.71427" rx="4.85714" fill="#FEFEFE"/>
<rect x="841.572" y="641.571" width="46.9523" height="9.71427" rx="4.85714" fill="#FEFEFE"/>
<rect x="824.302" y="651.286" width="51.8094" height="9.71427" rx="4.85714" fill="#3D4873"/>
</g>
<g opacity="0.05">
<rect x="171.409" y="1367.33" width="69.6323" height="10.1901" rx="5.09504" transform="rotate(-180 171.409 1367.33)" fill="#3D4873"/>
<rect x="195.752" y="1346.95" width="112.091" height="10.1901" rx="5.09504" transform="rotate(-180 195.752 1346.95)" fill="#3D4873"/>
<rect x="215" y="1326.57" width="110.393" height="10.1901" rx="5.09504" transform="rotate(-180 215 1326.57)" fill="#3D4873"/>
<rect x="101.777" y="1326.57" width="23.7769" height="10.1901" rx="5.09504" transform="rotate(-180 101.777 1326.57)" fill="#3D4873"/>
<rect x="189.525" y="1336.76" width="56.6116" height="10.1901" rx="5.09504" transform="rotate(-180 189.525 1336.76)" fill="#3D4873"/>
<rect x="98.9463" y="1367.33" width="10.1901" height="10.1901" rx="5.09504" transform="rotate(-180 98.9463 1367.33)" fill="#3D4873"/>
<rect x="208.773" y="1346.95" width="10.1901" height="10.1901" rx="5.09504" transform="rotate(-180 208.773 1346.95)" fill="#3D4873"/>
<rect x="168.579" y="1357.14" width="39.062" height="10.1901" rx="5.09504" transform="rotate(-180 168.579 1357.14)" fill="#3D4873"/>
<rect x="198.583" y="1357.14" width="40.7604" height="10.1901" rx="5.09504" transform="rotate(-180 198.583 1357.14)" fill="#FEFEFE"/>
<rect x="148.764" y="1357.14" width="49.2521" height="10.1901" rx="5.09504" transform="rotate(-180 148.764 1357.14)" fill="#FEFEFE"/>
<rect x="183.864" y="1316.38" width="39.062" height="10.1901" rx="5.09504" transform="rotate(-180 183.864 1316.38)" fill="#3D4873"/>
<rect x="213.868" y="1316.38" width="40.7604" height="10.1901" rx="5.09504" transform="rotate(-180 213.868 1316.38)" fill="#FEFEFE"/>
<rect x="164.05" y="1316.38" width="49.2521" height="10.1901" rx="5.09504" transform="rotate(-180 164.05 1316.38)" fill="#FEFEFE"/>
<rect x="182.165" y="1306.19" width="54.3471" height="10.1901" rx="5.09504" transform="rotate(-180 182.165 1306.19)" fill="#3D4873"/>
</g>
<g opacity="0.05">
<rect x="875.409" y="1224.33" width="69.6323" height="10.1901" rx="5.09504" transform="rotate(-180 875.409 1224.33)" fill="#3D4873"/>
<rect x="899.752" y="1203.95" width="112.091" height="10.1901" rx="5.09504" transform="rotate(-180 899.752 1203.95)" fill="#3D4873"/>
<rect x="919" y="1183.57" width="110.393" height="10.1901" rx="5.09504" transform="rotate(-180 919 1183.57)" fill="#3D4873"/>
<rect x="805.777" y="1183.57" width="23.7769" height="10.1901" rx="5.09504" transform="rotate(-180 805.777 1183.57)" fill="#3D4873"/>
<rect x="893.525" y="1193.76" width="56.6116" height="10.1901" rx="5.09504" transform="rotate(-180 893.525 1193.76)" fill="#3D4873"/>
<rect x="802.946" y="1224.33" width="10.1901" height="10.1901" rx="5.09504" transform="rotate(-180 802.946 1224.33)" fill="#3D4873"/>
<rect x="912.772" y="1203.95" width="10.1901" height="10.1901" rx="5.09504" transform="rotate(-180 912.772 1203.95)" fill="#3D4873"/>
<rect x="872.578" y="1214.14" width="39.062" height="10.1901" rx="5.09504" transform="rotate(-180 872.578 1214.14)" fill="#3D4873"/>
<rect x="902.583" y="1214.14" width="40.7604" height="10.1901" rx="5.09504" transform="rotate(-180 902.583 1214.14)" fill="#FEFEFE"/>
<rect x="852.764" y="1214.14" width="49.2521" height="10.1901" rx="5.09504" transform="rotate(-180 852.764 1214.14)" fill="#FEFEFE"/>
<rect x="887.864" y="1173.38" width="39.062" height="10.1901" rx="5.09504" transform="rotate(-180 887.864 1173.38)" fill="#3D4873"/>
<rect x="917.868" y="1173.38" width="40.7604" height="10.1901" rx="5.09504" transform="rotate(-180 917.868 1173.38)" fill="#FEFEFE"/>
<rect x="868.049" y="1173.38" width="49.2521" height="10.1901" rx="5.09504" transform="rotate(-180 868.049 1173.38)" fill="#FEFEFE"/>
<rect x="886.165" y="1163.19" width="54.3471" height="10.1901" rx="5.09504" transform="rotate(-180 886.165 1163.19)" fill="#3D4873"/>
</g>
<g opacity="0.05">
<rect x="716.409" y="1192" width="53.3678" height="7.80992" rx="3.90496" fill="#3D4873"/>
<rect x="697.752" y="1207.62" width="85.9091" height="7.80992" rx="3.90496" fill="#3D4873"/>
<rect x="683" y="1223.24" width="84.6075" height="7.80992" rx="3.90496" fill="#3D4873"/>
<rect x="769.777" y="1223.24" width="18.2232" height="7.80992" rx="3.90496" fill="#3D4873"/>
<rect x="702.525" y="1215.43" width="43.3885" height="7.80992" rx="3.90496" fill="#3D4873"/>
<rect x="771.946" y="1192" width="7.80992" height="7.80992" rx="3.90496" fill="#3D4873"/>
<rect x="687.773" y="1207.62" width="7.80992" height="7.80992" rx="3.90496" fill="#3D4873"/>
<rect x="718.579" y="1199.81" width="29.938" height="7.80992" rx="3.90496" fill="#3D4873"/>
<rect x="695.583" y="1199.81" width="31.2397" height="7.80992" rx="3.90496" fill="#FEFEFE"/>
<rect x="733.765" y="1199.81" width="37.748" height="7.80992" rx="3.90496" fill="#FEFEFE"/>
<rect x="706.864" y="1231.05" width="29.938" height="7.80992" rx="3.90496" fill="#3D4873"/>
<rect x="683.868" y="1231.05" width="31.2397" height="7.80992" rx="3.90496" fill="#FEFEFE"/>
<rect x="722.05" y="1231.05" width="37.748" height="7.80992" rx="3.90496" fill="#FEFEFE"/>
<rect x="708.166" y="1238.86" width="41.6529" height="7.80992" rx="3.90496" fill="#3D4873"/>
</g>
<g opacity="0.05">
<rect width="46.7359" height="6.83941" rx="3.4197" transform="matrix(-1 0 0 1 103.695 1381)" fill="#3D4873"/>
<rect width="75.2335" height="6.83941" rx="3.4197" transform="matrix(-1 0 0 1 120.033 1394.68)" fill="#3D4873"/>
<rect width="74.0936" height="6.83941" rx="3.4197" transform="matrix(-1 0 0 1 132.952 1408.36)" fill="#3D4873"/>
<rect width="15.9586" height="6.83941" rx="3.4197" transform="matrix(-1 0 0 1 56.9585 1408.36)" fill="#3D4873"/>
<rect width="37.9967" height="6.83941" rx="3.4197" transform="matrix(-1 0 0 1 115.854 1401.52)" fill="#3D4873"/>
<rect width="6.83941" height="6.83941" rx="3.4197" transform="matrix(-1 0 0 1 55.0586 1381)" fill="#3D4873"/>
<rect width="6.83941" height="6.83941" rx="3.4197" transform="matrix(-1 0 0 1 128.772 1394.68)" fill="#3D4873"/>
<rect width="26.2177" height="6.83941" rx="3.4197" transform="matrix(-1 0 0 1 101.795 1387.84)" fill="#3D4873"/>
<rect width="27.3576" height="6.83941" rx="3.4197" transform="matrix(-1 0 0 1 121.933 1387.84)" fill="#FEFEFE"/>
<rect width="33.0571" height="6.83941" rx="3.4197" transform="matrix(-1 0 0 1 88.4961 1387.84)" fill="#FEFEFE"/>
<rect width="26.2177" height="6.83941" rx="3.4197" transform="matrix(-1 0 0 1 112.054 1415.2)" fill="#3D4873"/>
<rect width="27.3576" height="6.83941" rx="3.4197" transform="matrix(-1 0 0 1 132.192 1415.2)" fill="#FEFEFE"/>
<rect width="33.0571" height="6.83941" rx="3.4197" transform="matrix(-1 0 0 1 98.7549 1415.2)" fill="#FEFEFE"/>
<rect width="36.4768" height="6.83941" rx="3.4197" transform="matrix(-1 0 0 1 110.914 1422.04)" fill="#3D4873"/>
</g>
<g opacity="0.05">
<rect width="166.202" height="24.3223" rx="12.1612" transform="matrix(1 8.74228e-08 8.74228e-08 -1 1262.05 1344.26)" fill="#3D4873"/>
<rect width="267.545" height="24.3223" rx="12.1612" transform="matrix(1 8.74228e-08 8.74228e-08 -1 1203.94 1295.61)" fill="#3D4873"/>
<rect width="263.492" height="24.3223" rx="12.1612" transform="matrix(1 8.74228e-08 8.74228e-08 -1 1158 1246.97)" fill="#3D4873"/>
<rect width="56.752" height="24.3223" rx="12.1612" transform="matrix(1 8.74228e-08 8.74228e-08 -1 1428.25 1246.97)" fill="#3D4873"/>
<rect width="135.124" height="24.3223" rx="12.1612" transform="matrix(1 8.74228e-08 8.74228e-08 -1 1218.81 1271.29)" fill="#3D4873"/>
<rect width="24.3223" height="24.3223" rx="12.1612" transform="matrix(1 8.74228e-08 8.74228e-08 -1 1435 1344.26)" fill="#3D4873"/>
<rect width="24.3223" height="24.3223" rx="12.1612" transform="matrix(1 8.74228e-08 8.74228e-08 -1 1172.86 1295.61)" fill="#3D4873"/>
<rect width="93.2355" height="24.3223" rx="12.1612" transform="matrix(1 8.74228e-08 8.74228e-08 -1 1268.8 1319.93)" fill="#3D4873"/>
<rect width="97.2892" height="24.3223" rx="12.1612" transform="matrix(1 8.74228e-08 8.74228e-08 -1 1197.19 1319.93)" fill="#FEFEFE"/>
<rect width="117.558" height="24.3223" rx="12.1612" transform="matrix(1 8.74228e-08 8.74228e-08 -1 1316.1 1319.93)" fill="#FEFEFE"/>
<rect width="93.2355" height="24.3223" rx="12.1612" transform="matrix(1 8.74228e-08 8.74228e-08 -1 1232.32 1222.64)" fill="#3D4873"/>
<rect width="97.2892" height="24.3223" rx="12.1612" transform="matrix(1 8.74228e-08 8.74228e-08 -1 1160.7 1222.64)" fill="#FEFEFE"/>
<rect width="117.558" height="24.3223" rx="12.1612" transform="matrix(1 8.74228e-08 8.74228e-08 -1 1279.61 1222.64)" fill="#FEFEFE"/>
<rect width="129.719" height="24.3223" rx="12.1612" transform="matrix(1 8.74228e-08 8.74228e-08 -1 1236.37 1198.32)" fill="#3D4873"/>
</g>
<circle cx="175" cy="415" r="165" transform="rotate(-90 175 415)" fill="#3D4873" fill-opacity="0.05"/>
<circle cx="381" cy="496" r="34" fill="#3D4873" fill-opacity="0.05"/>
<circle cx="329.5" cy="553.5" r="17.5" fill="#3D4873" fill-opacity="0.05"/>
</svg>
