<svg id="visual" viewBox="0 0 500 50" width="500" height="50" xmlns="http://www.w3.org/2000/svg" xmlns:xlink="http://www.w3.org/1999/xlink" version="1.1"><path d="M0 13L6.3 13.8C12.7 14.7 25.3 16.3 38.2 17.3C51 18.3 64 18.7 76.8 15.8C89.7 13 102.3 7 115.2 5.2C128 3.3 141 5.7 153.8 6.5C166.7 7.3 179.3 6.7 192.2 5.7C205 4.7 218 3.3 230.8 2.5C243.7 1.7 256.3 1.3 269.2 1.5C282 1.7 295 2.3 307.8 3.8C320.7 5.3 333.3 7.7 346.2 8.3C359 9 372 8 384.8 8.7C397.7 9.3 410.3 11.7 423.2 12.2C436 12.7 449 11.3 461.8 10.8C474.7 10.3 487.3 10.7 493.7 10.8L500 11L500 51L493.7 51C487.3 51 474.7 51 461.8 51C449 51 436 51 423.2 51C410.3 51 397.7 51 384.8 51C372 51 359 51 346.2 51C333.3 51 320.7 51 307.8 51C295 51 282 51 269.2 51C256.3 51 243.7 51 230.8 51C218 51 205 51 192.2 51C179.3 51 166.7 51 153.8 51C141 51 128 51 115.2 51C102.3 51 89.7 51 76.8 51C64 51 51 51 38.2 51C25.3 51 12.7 51 6.3 51L0 51Z" fill="#e5e5e8"></path><path d="M0 33L6.3 32C12.7 31 25.3 29 38.2 27.7C51 26.3 64 25.7 76.8 24.2C89.7 22.7 102.3 20.3 115.2 20.8C128 21.3 141 24.7 153.8 26C166.7 27.3 179.3 26.7 192.2 25.5C205 24.3 218 22.7 230.8 23.8C243.7 25 256.3 29 269.2 30C282 31 295 29 307.8 26C320.7 23 333.3 19 346.2 18.2C359 17.3 372 19.7 384.8 23C397.7 26.3 410.3 30.7 423.2 29.5C436 28.3 449 21.7 461.8 18.8C474.7 16 487.3 17 493.7 17.5L500 18L500 51L493.7 51C487.3 51 474.7 51 461.8 51C449 51 436 51 423.2 51C410.3 51 397.7 51 384.8 51C372 51 359 51 346.2 51C333.3 51 320.7 51 307.8 51C295 51 282 51 269.2 51C256.3 51 243.7 51 230.8 51C218 51 205 51 192.2 51C179.3 51 166.7 51 153.8 51C141 51 128 51 115.2 51C102.3 51 89.7 51 76.8 51C64 51 51 51 38.2 51C25.3 51 12.7 51 6.3 51L0 51Z" fill="#a7a8b4"></path><path d="M0 26L6.3 28C12.7 30 25.3 34 38.2 35.5C51 37 64 36 76.8 37.3C89.7 38.7 102.3 42.3 115.2 43C128 43.7 141 41.3 153.8 39.7C166.7 38 179.3 37 192.2 37.2C205 37.3 218 38.7 230.8 37.8C243.7 37 256.3 34 269.2 34.7C282 35.3 295 39.7 307.8 41C320.7 42.3 333.3 40.7 346.2 38.8C359 37 372 35 384.8 36.5C397.7 38 410.3 43 423.2 43.2C436 43.3 449 38.7 461.8 37.8C474.7 37 487.3 40 493.7 41.5L500 43L500 51L493.7 51C487.3 51 474.7 51 461.8 51C449 51 436 51 423.2 51C410.3 51 397.7 51 384.8 51C372 51 359 51 346.2 51C333.3 51 320.7 51 307.8 51C295 51 282 51 269.2 51C256.3 51 243.7 51 230.8 51C218 51 205 51 192.2 51C179.3 51 166.7 51 153.8 51C141 51 128 51 115.2 51C102.3 51 89.7 51 76.8 51C64 51 51 51 38.2 51C25.3 51 12.7 51 6.3 51L0 51Z" fill="#6d6e82"></path></svg>