<svg id="visual" viewBox="0 0 500 50" width="500" height="50" xmlns="http://www.w3.org/2000/svg" xmlns:xlink="http://www.w3.org/1999/xlink" version="1.1"><path d="M0 32L8.3 32.3C16.7 32.7 33.3 33.3 50 33C66.7 32.7 83.3 31.3 100 33.3C116.7 35.3 133.3 40.7 150 43.3C166.7 46 183.3 46 200 43.5C216.7 41 233.3 36 250 36.2C266.7 36.3 283.3 41.7 300 44.5C316.7 47.3 333.3 47.7 350 45.2C366.7 42.7 383.3 37.3 400 36.7C416.7 36 433.3 40 450 42.2C466.7 44.3 483.3 44.7 491.7 44.8L500 45L500 0L491.7 0C483.3 0 466.7 0 450 0C433.3 0 416.7 0 400 0C383.3 0 366.7 0 350 0C333.3 0 316.7 0 300 0C283.3 0 266.7 0 250 0C233.3 0 216.7 0 200 0C183.3 0 166.7 0 150 0C133.3 0 116.7 0 100 0C83.3 0 66.7 0 50 0C33.3 0 16.7 0 8.3 0L0 0Z" fill="#fbedfa"></path><path d="M0 25L8.3 25.2C16.7 25.3 33.3 25.7 50 27C66.7 28.3 83.3 30.7 100 32.2C116.7 33.7 133.3 34.3 150 34.7C166.7 35 183.3 35 200 32.5C216.7 30 233.3 25 250 23.3C266.7 21.7 283.3 23.3 300 25.2C316.7 27 333.3 29 350 29.3C366.7 29.7 383.3 28.3 400 26.2C416.7 24 433.3 21 450 20.7C466.7 20.3 483.3 22.7 491.7 23.8L500 25L500 0L491.7 0C483.3 0 466.7 0 450 0C433.3 0 416.7 0 400 0C383.3 0 366.7 0 350 0C333.3 0 316.7 0 300 0C283.3 0 266.7 0 250 0C233.3 0 216.7 0 200 0C183.3 0 166.7 0 150 0C133.3 0 116.7 0 100 0C83.3 0 66.7 0 50 0C33.3 0 16.7 0 8.3 0L0 0Z" fill="#cebbe5"></path><path d="M0 7L8.3 8.2C16.7 9.3 33.3 11.7 50 10.8C66.7 10 83.3 6 100 6.5C116.7 7 133.3 12 150 12C166.7 12 183.3 7 200 6.5C216.7 6 233.3 10 250 10.2C266.7 10.3 283.3 6.7 300 5.5C316.7 4.3 333.3 5.7 350 6.3C366.7 7 383.3 7 400 9.5C416.7 12 433.3 17 450 17.2C466.7 17.3 483.3 12.7 491.7 10.3L500 8L500 0L491.7 0C483.3 0 466.7 0 450 0C433.3 0 416.7 0 400 0C383.3 0 366.7 0 350 0C333.3 0 316.7 0 300 0C283.3 0 266.7 0 250 0C233.3 0 216.7 0 200 0C183.3 0 166.7 0 150 0C133.3 0 116.7 0 100 0C83.3 0 66.7 0 50 0C33.3 0 16.7 0 8.3 0L0 0Z" fill="#8991d6"></path></svg>