<svg id="visual" viewBox="0 0 500 50" width="500" height="50" xmlns="http://www.w3.org/2000/svg" xmlns:xlink="http://www.w3.org/1999/xlink" version="1.1"><path d="M0 29L11.8 29C23.7 29 47.3 29 71.2 32C95 35 119 41 142.8 43.7C166.7 46.3 190.3 45.7 214.2 42.7C238 39.7 262 34.3 285.8 31.2C309.7 28 333.3 27 357.2 28C381 29 405 32 428.8 34.7C452.7 37.3 476.3 39.7 488.2 40.8L500 42L500 0L488.2 0C476.3 0 452.7 0 428.8 0C405 0 381 0 357.2 0C333.3 0 309.7 0 285.8 0C262 0 238 0 214.2 0C190.3 0 166.7 0 142.8 0C119 0 95 0 71.2 0C47.3 0 23.7 0 11.8 0L0 0Z" fill="#424451"></path><path d="M0 19L11.8 18.5C23.7 18 47.3 17 71.2 16.3C95 15.7 119 15.3 142.8 16.5C166.7 17.7 190.3 20.3 214.2 20.8C238 21.3 262 19.7 285.8 19.2C309.7 18.7 333.3 19.3 357.2 18.8C381 18.3 405 16.7 428.8 15.8C452.7 15 476.3 15 488.2 15L500 15L500 0L488.2 0C476.3 0 452.7 0 428.8 0C405 0 381 0 357.2 0C333.3 0 309.7 0 285.8 0C262 0 238 0 214.2 0C190.3 0 166.7 0 142.8 0C119 0 95 0 71.2 0C47.3 0 23.7 0 11.8 0L0 0Z" fill="#575969"></path><path d="M0 8L11.8 8C23.7 8 47.3 8 71.2 8C95 8 119 8 142.8 9C166.7 10 190.3 12 214.2 12.7C238 13.3 262 12.7 285.8 12C309.7 11.3 333.3 10.7 357.2 12.5C381 14.3 405 18.7 428.8 18.2C452.7 17.7 476.3 12.3 488.2 9.7L500 7L500 0L488.2 0C476.3 0 452.7 0 428.8 0C405 0 381 0 357.2 0C333.3 0 309.7 0 285.8 0C262 0 238 0 214.2 0C190.3 0 166.7 0 142.8 0C119 0 95 0 71.2 0C47.3 0 23.7 0 11.8 0L0 0Z" fill="#6d6e82"></path></svg>