<svg id="visual" viewBox="0 0 500 50" width="500" height="50" xmlns="http://www.w3.org/2000/svg" xmlns:xlink="http://www.w3.org/1999/xlink" version="1.1"><path d="M0 43L7.5 41.2C15 39.3 30 35.7 45.2 35C60.3 34.3 75.7 36.7 90.8 38.7C106 40.7 121 42.3 136.2 40.7C151.3 39 166.7 34 181.8 29.3C197 24.7 212 20.3 227.2 22.5C242.3 24.7 257.7 33.3 272.8 34.2C288 35 303 28 318.2 29.2C333.3 30.3 348.7 39.7 363.8 41.2C379 42.7 394 36.3 409.2 32.5C424.3 28.7 439.7 27.3 454.8 29.5C470 31.7 485 37.3 492.5 40.2L500 43L500 0L492.5 0C485 0 470 0 454.8 0C439.7 0 424.3 0 409.2 0C394 0 379 0 363.8 0C348.7 0 333.3 0 318.2 0C303 0 288 0 272.8 0C257.7 0 242.3 0 227.2 0C212 0 197 0 181.8 0C166.7 0 151.3 0 136.2 0C121 0 106 0 90.8 0C75.7 0 60.3 0 45.2 0C30 0 15 0 7.5 0L0 0Z" fill="#c1c6ed"></path><path d="M0 20L7.5 17.8C15 15.7 30 11.3 45.2 11.3C60.3 11.3 75.7 15.7 90.8 17.5C106 19.3 121 18.7 136.2 19.7C151.3 20.7 166.7 23.3 181.8 20.5C197 17.7 212 9.3 227.2 7.3C242.3 5.3 257.7 9.7 272.8 14C288 18.3 303 22.7 318.2 22.3C333.3 22 348.7 17 363.8 15.5C379 14 394 16 409.2 16.3C424.3 16.7 439.7 15.3 454.8 16.8C470 18.3 485 22.7 492.5 24.8L500 27L500 0L492.5 0C485 0 470 0 454.8 0C439.7 0 424.3 0 409.2 0C394 0 379 0 363.8 0C348.7 0 333.3 0 318.2 0C303 0 288 0 272.8 0C257.7 0 242.3 0 227.2 0C212 0 197 0 181.8 0C166.7 0 151.3 0 136.2 0C121 0 106 0 90.8 0C75.7 0 60.3 0 45.2 0C30 0 15 0 7.5 0L0 0Z" fill="#e6e8f8"></path></svg>