<svg id="visual" viewBox="0 0 500 50" width="500" height="50" xmlns="http://www.w3.org/2000/svg" xmlns:xlink="http://www.w3.org/1999/xlink" version="1.1"><path d="M0 29L11.8 27.5C23.7 26 47.3 23 71.2 23.3C95 23.7 119 27.3 142.8 24.2C166.7 21 190.3 11 214.2 8.3C238 5.7 262 10.3 285.8 16.2C309.7 22 333.3 29 357.2 30C381 31 405 26 428.8 21.7C452.7 17.3 476.3 13.7 488.2 11.8L500 10L500 51L488.2 51C476.3 51 452.7 51 428.8 51C405 51 381 51 357.2 51C333.3 51 309.7 51 285.8 51C262 51 238 51 214.2 51C190.3 51 166.7 51 142.8 51C119 51 95 51 71.2 51C47.3 51 23.7 51 11.8 51L0 51Z" fill="#e5e5e8"></path><path d="M0 20L11.8 19.2C23.7 18.3 47.3 16.7 71.2 20C95 23.3 119 31.7 142.8 35C166.7 38.3 190.3 36.7 214.2 34.2C238 31.7 262 28.3 285.8 25C309.7 21.7 333.3 18.3 357.2 17C381 15.7 405 16.3 428.8 19.5C452.7 22.7 476.3 28.3 488.2 31.2L500 34L500 51L488.2 51C476.3 51 452.7 51 428.8 51C405 51 381 51 357.2 51C333.3 51 309.7 51 285.8 51C262 51 238 51 214.2 51C190.3 51 166.7 51 142.8 51C119 51 95 51 71.2 51C47.3 51 23.7 51 11.8 51L0 51Z" fill="#a7a8b4"></path><path d="M0 47L11.8 43.3C23.7 39.7 47.3 32.3 71.2 32.2C95 32 119 39 142.8 43C166.7 47 190.3 48 214.2 44.3C238 40.7 262 32.3 285.8 30.7C309.7 29 333.3 34 357.2 36.8C381 39.7 405 40.3 428.8 41C452.7 41.7 476.3 42.3 488.2 42.7L500 43L500 51L488.2 51C476.3 51 452.7 51 428.8 51C405 51 381 51 357.2 51C333.3 51 309.7 51 285.8 51C262 51 238 51 214.2 51C190.3 51 166.7 51 142.8 51C119 51 95 51 71.2 51C47.3 51 23.7 51 11.8 51L0 51Z" fill="#6d6e82"></path></svg>