<svg id="visual" viewBox="0 0 325 325" width="325" height="325" xmlns="http://www.w3.org/2000/svg" xmlns:xlink="http://www.w3.org/1999/xlink" version="1.1"><g transform="translate(154.40177264729004 179.38719557483216)"><path d="M88.8 -107.6C116.7 -82.4 142 -55.9 151.9 -23.3C161.8 9.3 156.3 48.2 137.3 77.5C118.2 106.9 85.8 126.7 53.4 132.1C21.1 137.5 -11.2 128.4 -46.3 119.1C-81.5 109.9 -119.6 100.4 -133.5 76.8C-147.4 53.2 -137.2 15.4 -132.7 -25.7C-128.2 -66.8 -129.4 -111.2 -108.2 -137.6C-87 -164.1 -43.5 -172.5 -6.5 -164.7C30.4 -156.9 60.9 -132.9 88.8 -107.6" fill="#3D4873"></path></g></svg>