<svg id="visual" viewBox="0 0 500 50" width="500" height="50" xmlns="http://www.w3.org/2000/svg" xmlns:xlink="http://www.w3.org/1999/xlink" version="1.1"><path d="M0 38L8.3 36.8C16.7 35.7 33.3 33.3 50 33.5C66.7 33.7 83.3 36.3 100 38.7C116.7 41 133.3 43 150 44.3C166.7 45.7 183.3 46.3 200 44.5C216.7 42.7 233.3 38.3 250 36.5C266.7 34.7 283.3 35.3 300 34C316.7 32.7 333.3 29.3 350 31C366.7 32.7 383.3 39.3 400 42.7C416.7 46 433.3 46 450 43.7C466.7 41.3 483.3 36.7 491.7 34.3L500 32L500 0L491.7 0C483.3 0 466.7 0 450 0C433.3 0 416.7 0 400 0C383.3 0 366.7 0 350 0C333.3 0 316.7 0 300 0C283.3 0 266.7 0 250 0C233.3 0 216.7 0 200 0C183.3 0 166.7 0 150 0C133.3 0 116.7 0 100 0C83.3 0 66.7 0 50 0C33.3 0 16.7 0 8.3 0L0 0Z" fill="#fbedfa"></path><path d="M0 29L8.3 27.8C16.7 26.7 33.3 24.3 50 22.8C66.7 21.3 83.3 20.7 100 21.3C116.7 22 133.3 24 150 25C166.7 26 183.3 26 200 27.2C216.7 28.3 233.3 30.7 250 29.3C266.7 28 283.3 23 300 21.2C316.7 19.3 333.3 20.7 350 21.5C366.7 22.3 383.3 22.7 400 24.3C416.7 26 433.3 29 450 30.3C466.7 31.7 483.3 31.3 491.7 31.2L500 31L500 0L491.7 0C483.3 0 466.7 0 450 0C433.3 0 416.7 0 400 0C383.3 0 366.7 0 350 0C333.3 0 316.7 0 300 0C283.3 0 266.7 0 250 0C233.3 0 216.7 0 200 0C183.3 0 166.7 0 150 0C133.3 0 116.7 0 100 0C83.3 0 66.7 0 50 0C33.3 0 16.7 0 8.3 0L0 0Z" fill="#cebbe5"></path><path d="M0 10L8.3 8.5C16.7 7 33.3 4 50 5C66.7 6 83.3 11 100 12.5C116.7 14 133.3 12 150 13C166.7 14 183.3 18 200 19.2C216.7 20.3 233.3 18.7 250 18.2C266.7 17.7 283.3 18.3 300 17C316.7 15.7 333.3 12.3 350 12.2C366.7 12 383.3 15 400 14.8C416.7 14.7 433.3 11.3 450 10.2C466.7 9 483.3 10 491.7 10.5L500 11L500 0L491.7 0C483.3 0 466.7 0 450 0C433.3 0 416.7 0 400 0C383.3 0 366.7 0 350 0C333.3 0 316.7 0 300 0C283.3 0 266.7 0 250 0C233.3 0 216.7 0 200 0C183.3 0 166.7 0 150 0C133.3 0 116.7 0 100 0C83.3 0 66.7 0 50 0C33.3 0 16.7 0 8.3 0L0 0Z" fill="#8991d6"></path></svg>