<?xml version="1.0" standalone="no"?>
<!DOCTYPE svg PUBLIC "-//W3C//DTD SVG 20010904//EN"
 "http://www.w3.org/TR/2001/REC-SVG-20010904/DTD/svg10.dtd">
<svg version="1.0" xmlns="http://www.w3.org/2000/svg"
 width="738.000000pt" height="737.000000pt" viewBox="0 0 738.000000 737.000000"
 preserveAspectRatio="xMidYMid meet">

<g transform="translate(0.000000,737.000000) scale(0.100000,-0.100000)"
fill="#000000" stroke="none">
<path d="M399 7331 c-178 -57 -320 -211 -359 -392 -27 -122 2 -283 69 -387 17
-26 663 -679 1435 -1452 l1406 -1405 -1403 -1405 c-868 -868 -1416 -1425
-1436 -1457 -48 -77 -73 -158 -79 -252 -9 -159 38 -283 152 -397 167 -166 394
-201 616 -93 60 29 170 137 1477 1448 l1411 1416 1424 -1421 c1537 -1535 1447
-1451 1593 -1489 270 -69 549 93 629 364 21 71 21 211 0 282 -42 143 26 71
-1489 1587 l-1411 1414 1411 1411 c1517 1517 1447 1442 1489 1586 21 71 21
211 0 282 -52 177 -188 312 -368 364 -44 13 -84 16 -160 13 -110 -5 -181 -26
-255 -76 -23 -15 -447 -432 -943 -927 -497 -495 -1131 -1127 -1410 -1405
l-508 -505 -1412 1411 c-1516 1513 -1444 1446 -1587 1488 -74 22 -219 20 -292
-3z"/>
</g>
</svg>
