<svg width="40" height="40" viewBox="0 0 40 40" fill="none" xmlns="http://www.w3.org/2000/svg">
<path d="M3.11133 13.8V11H4.31133V13.8H3.11133ZM4.31055 13.8V11H5.51055V13.8H4.31055ZM5.50977 13.8V11H6.70977V13.8H5.50977ZM6.70898 13.8V11H7.90898V13.8H6.70898ZM7.9082 13.8V11H9.1082V13.8H7.9082ZM9.94142 13.8H9.78542V12.322H9.02942V12.166H9.94142V13.8ZM9.62942 13.8H9.47342V12.634H9.02942V12.478H9.62942V13.8ZM11.5059 13.8V11H12.7059V13.8H11.5059ZM12.7051 13.8V11H13.9051V13.8H12.7051ZM13.9043 13.8V11H15.1043V13.8H13.9043ZM15.1035 13.8V11H16.3035V13.8H15.1035ZM16.3027 13.8V11H17.5027V13.8H16.3027ZM17.502 13.8V11H18.702V13.8H17.502ZM18.7012 13.8V11H19.9012V13.8H18.7012ZM20.7344 13.8H20.5784V12.322H19.8224V12.166H20.7344V13.8ZM20.4224 13.8H20.2664V12.634H19.8224V12.478H20.4224V13.8ZM22.2988 13.8V11H23.4988V13.8H22.2988ZM23.498 13.8V11H24.698V13.8H23.498ZM24.6973 13.8V11H25.8973V13.8H24.6973ZM25.8965 13.8V11H27.0965V13.8H25.8965ZM27.0957 13.8V11H28.2957V13.8H27.0957ZM28.2949 13.8V11H29.4949V13.8H28.2949ZM30.3281 13.8H30.1721V12.322H29.4161V12.166H30.3281V13.8ZM30.0161 13.8H29.8601V12.634H29.4161V12.478H30.0161V13.8ZM30.6934 13.8V11H31.8934V13.8H30.6934ZM31.8926 13.8V11H33.0926V13.8H31.8926ZM33.9258 13.8H33.7698V12.322H33.0138V12.166H33.9258V13.8ZM33.6138 13.8H33.4578V12.634H33.0138V12.478H33.6138V13.8ZM34.291 13.8V11H35.491V13.8H34.291ZM35.4902 13.8V11H36.6902V13.8H35.4902ZM37.5235 13.8H37.3675V12.322H36.6115V12.166H37.5235V13.8ZM37.2115 13.8H37.0555V12.634H36.6115V12.478H37.2115V13.8ZM1.91211 16.8V14H3.11211V16.8H1.91211ZM3.11133 16.8V14H4.31133V16.8H3.11133ZM5.58855 15.322H4.83255V16.8H4.67655V15.166H5.58855V15.322ZM5.58855 15.634H5.14455V16.8H4.98855V15.478H5.58855V15.634ZM5.43177 15.322V15.166H6.78777V15.322H5.43177ZM5.43177 15.634V15.478H6.78777V15.634H5.43177ZM6.63098 15.322V15.166H7.98698V15.322H6.63098ZM6.63098 15.634V15.478H7.98698V15.634H6.63098ZM7.9082 16.8V14H9.1082V16.8H7.9082ZM9.10742 16.8V14H10.3074V16.8H9.10742ZM11.1406 16.8H10.9846V15.322H10.2286V15.166H11.1406V16.8ZM10.8286 16.8H10.6726V15.634H10.2286V15.478H10.8286V16.8ZM11.5059 16.8V14H12.7059V16.8H11.5059ZM12.7051 16.8V14H13.9051V16.8H12.7051ZM15.1823 15.322H14.4263V16.8H14.2703V15.166H15.1823V15.322ZM15.1823 15.634H14.7383V16.8H14.5823V15.478H15.1823V15.634ZM15.0255 15.322V15.166H16.3815V15.322H15.0255ZM15.0255 15.634V15.478H16.3815V15.634H15.0255ZM16.2247 15.322V15.166H17.5807V15.322H16.2247ZM16.2247 15.634V15.478H17.5807V15.634H16.2247ZM17.424 15.322V15.166H18.78V15.322H17.424ZM17.424 15.634V15.478H18.78V15.634H17.424ZM18.6232 15.322V15.166H19.9792V15.322H18.6232ZM18.6232 15.634V15.478H19.9792V15.634H18.6232ZM20.4224 15.322H19.8224V15.166H20.2664V14H20.4224V15.322ZM20.7344 15.634H19.8224V15.478H20.5784V14H20.7344V15.634ZM21.0996 16.8V14H22.2996V16.8H21.0996ZM22.2988 16.8V14H23.4988V16.8H22.2988ZM24.776 15.322H24.02V16.8H23.864V15.166H24.776V15.322ZM24.776 15.634H24.332V16.8H24.176V15.478H24.776V15.634ZM24.6193 15.322V15.166H25.9753V15.322H24.6193ZM24.6193 15.634V15.478H25.9753V15.634H24.6193ZM25.8185 15.322V15.166H27.1745V15.322H25.8185ZM25.8185 15.634V15.478H27.1745V15.634H25.8185ZM27.0177 15.322V15.166H28.3737V15.322H27.0177ZM27.0177 15.634V15.478H28.3737V15.634H27.0177ZM28.2169 15.322V15.166H29.5729V15.322H28.2169ZM28.2169 15.634V15.478H29.5729V15.634H28.2169ZM30.0161 15.322H29.4161V15.166H29.8601V14H30.0161V15.322ZM30.3281 15.634H29.4161V15.478H30.1721V14H30.3281V15.634ZM30.6934 16.8V14H31.8934V16.8H30.6934ZM31.8926 16.8V14H33.0926V16.8H31.8926ZM33.7698 16.8V14H33.9258V16.8H33.7698ZM33.4578 16.8V14H33.6138V16.8H33.4578ZM34.291 16.8V14H35.491V16.8H34.291ZM35.4902 16.8V14H36.6902V16.8H35.4902ZM37.3675 16.8V14H37.5235V16.8H37.3675ZM37.0555 16.8V14H37.2115V16.8H37.0555ZM1.91211 19.8V17H3.11211V19.8H1.91211ZM3.11133 19.8V17H4.31133V19.8H3.11133ZM4.31055 19.8V17H5.51055V19.8H4.31055ZM5.50977 19.8V17H6.70977V19.8H5.50977ZM6.70898 19.8V17H7.90898V19.8H6.70898ZM7.9082 19.8V17H9.1082V19.8H7.9082ZM9.10742 19.8V17H10.3074V19.8H9.10742ZM10.9846 19.8V17H11.1406V19.8H10.9846ZM10.6726 19.8V17H10.8286V19.8H10.6726ZM11.5059 19.8V17H12.7059V19.8H11.5059ZM12.7051 19.8V17H13.9051V19.8H12.7051ZM13.9043 19.8V17H15.1043V19.8H13.9043ZM15.1035 19.8V17H16.3035V19.8H15.1035ZM16.3027 19.8V17H17.5027V19.8H16.3027ZM17.502 19.8V17H18.702V19.8H17.502ZM18.7012 19.8V17H19.9012V19.8H18.7012ZM20.7344 19.8H20.5784V18.322H19.8224V18.166H20.7344V19.8ZM20.4224 19.8H20.2664V18.634H19.8224V18.478H20.4224V19.8ZM21.0996 19.8V17H22.2996V19.8H21.0996ZM22.2988 19.8V17H23.4988V19.8H22.2988ZM24.176 19.8V17H24.332V19.8H24.176ZM23.864 19.8V17H24.02V19.8H23.864ZM30.6934 19.8V17H31.8934V19.8H30.6934ZM31.8926 19.8V17H33.0926V19.8H31.8926ZM33.7698 19.8V17H33.9258V19.8H33.7698ZM33.4578 19.8V17H33.6138V19.8H33.4578ZM34.291 19.8V17H35.491V19.8H34.291ZM35.4902 19.8V17H36.6902V19.8H35.4902ZM37.3675 19.8V17H37.5235V19.8H37.3675ZM37.0555 19.8V17H37.2115V19.8H37.0555ZM1.91211 22.8V20H3.11211V22.8H1.91211ZM3.11133 22.8V20H4.31133V22.8H3.11133ZM5.58855 21.322H4.83255V22.8H4.67655V21.166H5.58855V21.322ZM5.58855 21.634H5.14455V22.8H4.98855V21.478H5.58855V21.634ZM5.43177 21.322V21.166H6.78777V21.322H5.43177ZM5.43177 21.634V21.478H6.78777V21.634H5.43177ZM6.63098 21.322V21.166H7.98698V21.322H6.63098ZM6.63098 21.634V21.478H7.98698V21.634H6.63098ZM7.9082 22.8V20H9.1082V22.8H7.9082ZM9.10742 22.8V20H10.3074V22.8H9.10742ZM10.9846 22.8V20H11.1406V22.8H10.9846ZM10.6726 22.8V20H10.8286V22.8H10.6726ZM12.1839 21.322V20H12.3399V21.166H12.7839V21.322H12.1839ZM11.8719 21.634V20H12.0279V21.478H12.7839V21.634H11.8719ZM12.6271 21.322V21.166H13.9831V21.322H12.6271ZM12.6271 21.634V21.478H13.9831V21.634H12.6271ZM13.8263 21.322V21.166H15.1823V21.322H13.8263ZM13.8263 21.634V21.478H15.1823V21.634H13.8263ZM15.0255 21.322V21.166H16.3815V21.322H15.0255ZM15.0255 21.634V21.478H16.3815V21.634H15.0255ZM16.2247 21.322V21.166H17.5807V21.322H16.2247ZM16.2247 21.634V21.478H17.5807V21.634H16.2247ZM17.502 22.8V20H18.702V22.8H17.502ZM18.7012 22.8V20H19.9012V22.8H18.7012ZM20.5784 22.8V20H20.7344V22.8H20.5784ZM20.2664 22.8V20H20.4224V22.8H20.2664ZM21.0996 22.8V20H22.2996V22.8H21.0996ZM22.2988 22.8V20H23.4988V22.8H22.2988ZM24.176 22.8V20H24.332V22.8H24.176ZM23.864 22.8V20H24.02V22.8H23.864ZM30.6934 22.8V20H31.8934V22.8H30.6934ZM31.8926 22.8V20H33.0926V22.8H31.8926ZM33.7698 22.8V20H33.9258V22.8H33.7698ZM33.4578 22.8V20H33.6138V22.8H33.4578ZM34.291 22.8V20H35.491V22.8H34.291ZM35.4902 22.8V20H36.6902V22.8H35.4902ZM37.3675 22.8V20H37.5235V22.8H37.3675ZM37.0555 22.8V20H37.2115V22.8H37.0555ZM1.91211 25.8V23H3.11211V25.8H1.91211ZM3.11133 25.8V23H4.31133V25.8H3.11133ZM4.98855 25.8V23H5.14455V25.8H4.98855ZM4.67655 25.8V23H4.83255V25.8H4.67655ZM7.9082 25.8V23H9.1082V25.8H7.9082ZM9.10742 25.8V23H10.3074V25.8H9.10742ZM10.9846 25.8V23H11.1406V25.8H10.9846ZM10.6726 25.8V23H10.8286V25.8H10.6726ZM11.5059 25.8V23H12.7059V25.8H11.5059ZM12.7051 25.8V23H13.9051V25.8H12.7051ZM13.9043 25.8V23H15.1043V25.8H13.9043ZM15.1035 25.8V23H16.3035V25.8H15.1035ZM16.3027 25.8V23H17.5027V25.8H16.3027ZM17.502 25.8V23H18.702V25.8H17.502ZM18.7012 25.8V23H19.9012V25.8H18.7012ZM20.5784 25.8V23H20.7344V25.8H20.5784ZM20.2664 25.8V23H20.4224V25.8H20.2664ZM21.7776 24.322V23H21.9336V24.166H22.3776V24.322H21.7776ZM21.4656 24.634V23H21.6216V24.478H22.3776V24.634H21.4656ZM22.2988 25.8V23H23.4988V25.8H22.2988ZM23.498 25.8V23H24.698V25.8H23.498ZM24.6973 25.8V23H25.8973V25.8H24.6973ZM25.8965 25.8V23H27.0965V25.8H25.8965ZM27.0957 25.8V23H28.2957V25.8H27.0957ZM28.2949 25.8V23H29.4949V25.8H28.2949ZM30.3281 25.8H30.1721V24.322H29.4161V24.166H30.3281V25.8ZM30.0161 25.8H29.8601V24.634H29.4161V24.478H30.0161V25.8ZM30.6934 25.8V23H31.8934V25.8H30.6934ZM31.8926 25.8V23H33.0926V25.8H31.8926ZM33.7698 25.8V23H33.9258V25.8H33.7698ZM33.4578 25.8V23H33.6138V25.8H33.4578ZM34.291 25.8V23H35.491V25.8H34.291ZM35.4902 25.8V23H36.6902V25.8H35.4902ZM37.3675 25.8V23H37.5235V25.8H37.3675ZM37.0555 25.8V23H37.2115V25.8H37.0555ZM2.59011 27.322V26H2.74611V27.166H3.19011V27.322H2.59011ZM2.27811 27.634V26H2.43411V27.478H3.19011V27.634H2.27811ZM3.03333 27.322V27.166H4.38933V27.322H3.03333ZM3.03333 27.634V27.478H4.38933V27.634H3.03333ZM4.83255 27.322H4.23255V27.166H4.67655V26H4.83255V27.322ZM5.14455 27.634H4.23255V27.478H4.98855V26H5.14455V27.634ZM8.5862 27.322V26H8.7422V27.166H9.1862V27.322H8.5862ZM8.2742 27.634V26H8.4302V27.478H9.1862V27.634H8.2742ZM9.02942 27.322V27.166H10.3854V27.322H9.02942ZM9.02942 27.634V27.478H10.3854V27.634H9.02942ZM10.8286 27.322H10.2286V27.166H10.6726V26H10.8286V27.322ZM11.1406 27.634H10.2286V27.478H10.9846V26H11.1406V27.634ZM12.1839 27.322V26H12.3399V27.166H12.7839V27.322H12.1839ZM11.8719 27.634V26H12.0279V27.478H12.7839V27.634H11.8719ZM12.6271 27.322V27.166H13.9831V27.322H12.6271ZM12.6271 27.634V27.478H13.9831V27.634H12.6271ZM13.8263 27.322V27.166H15.1823V27.322H13.8263ZM13.8263 27.634V27.478H15.1823V27.634H13.8263ZM15.0255 27.322V27.166H16.3815V27.322H15.0255ZM15.0255 27.634V27.478H16.3815V27.634H15.0255ZM16.2247 27.322V27.166H17.5807V27.322H16.2247ZM16.2247 27.634V27.478H17.5807V27.634H16.2247ZM17.424 27.322V27.166H18.78V27.322H17.424ZM17.424 27.634V27.478H18.78V27.634H17.424ZM18.6232 27.322V27.166H19.9792V27.322H18.6232ZM18.6232 27.634V27.478H19.9792V27.634H18.6232ZM20.4224 27.322H19.8224V27.166H20.2664V26H20.4224V27.322ZM20.7344 27.634H19.8224V27.478H20.5784V26H20.7344V27.634ZM22.9768 27.322V26H23.1328V27.166H23.5768V27.322H22.9768ZM22.6648 27.634V26H22.8208V27.478H23.5768V27.634H22.6648ZM23.42 27.322V27.166H24.776V27.322H23.42ZM23.42 27.634V27.478H24.776V27.634H23.42ZM24.6193 27.322V27.166H25.9753V27.322H24.6193ZM24.6193 27.634V27.478H25.9753V27.634H24.6193ZM25.8185 27.322V27.166H27.1745V27.322H25.8185ZM25.8185 27.634V27.478H27.1745V27.634H25.8185ZM27.0177 27.322V27.166H28.3737V27.322H27.0177ZM27.0177 27.634V27.478H28.3737V27.634H27.0177ZM28.2169 27.322V27.166H29.5729V27.322H28.2169ZM28.2169 27.634V27.478H29.5729V27.634H28.2169ZM30.0161 27.322H29.4161V27.166H29.8601V26H30.0161V27.322ZM30.3281 27.634H29.4161V27.478H30.1721V26H30.3281V27.634ZM31.3714 27.322V26H31.5274V27.166H31.9714V27.322H31.3714ZM31.0594 27.634V26H31.2154V27.478H31.9714V27.634H31.0594ZM31.8146 27.322V27.166H33.1706V27.322H31.8146ZM31.8146 27.634V27.478H33.1706V27.634H31.8146ZM33.6138 27.322H33.0138V27.166H33.4578V26H33.6138V27.322ZM33.9258 27.634H33.0138V27.478H33.7698V26H33.9258V27.634ZM34.969 27.322V26H35.125V27.166H35.569V27.322H34.969ZM34.657 27.634V26H34.813V27.478H35.569V27.634H34.657ZM35.4122 27.322V27.166H36.7682V27.322H35.4122ZM35.4122 27.634V27.478H36.7682V27.634H35.4122ZM37.2115 27.322H36.6115V27.166H37.0555V26H37.2115V27.322ZM37.5235 27.634H36.6115V27.478H37.3675V26H37.5235V27.634Z" fill="url(#paint0_linear_104_14)"/>
<defs>
<linearGradient id="paint0_linear_104_14" x1="20.5" y1="11" x2="20.5" y2="29" gradientUnits="userSpaceOnUse">
<stop stop-color="#5169C5"/>
<stop offset="1" stop-color="#111111"/>
</linearGradient>
</defs>
</svg>
