<svg width="40" height="40" viewBox="0 0 40 40" fill="none" xmlns="http://www.w3.org/2000/svg">
<rect width="40" height="40" fill="#7B13F7"/>
<path d="M8.30943 11.1365C8.25283 9.50471 9.51922 8 11.231 8H28.7712C30.483 8 31.7493 9.50471 31.6927 11.1365C31.6384 12.7039 31.709 14.7344 32.218 16.39C32.7286 18.0507 33.5897 19.1004 35 19.2353V20.7647C33.5897 20.8996 32.7286 21.9493 32.218 23.61C31.709 25.2656 31.6384 27.2961 31.6927 28.8636C31.7493 30.4953 30.483 32 28.7712 32H11.231C9.51922 32 8.25283 30.4953 8.30949 28.8636C8.36381 27.2961 8.2932 25.2656 7.78414 23.61C7.27355 21.9493 6.41035 20.8996 5 20.7647V19.2353C6.41029 19.1004 7.27355 18.0507 7.78414 16.39C8.2932 14.7344 8.36381 12.7039 8.30943 11.1365V11.1365Z" fill="#FBFBFB"/>
<path d="M20.6505 26.3799C23.4218 26.3799 25.0918 25.0177 25.0918 22.7708C25.0918 21.0724 23.9002 19.8428 22.1309 19.6482V19.5774C23.4308 19.3651 24.4509 18.1532 24.4509 16.7998C24.4509 14.8714 22.9344 13.6152 20.6234 13.6152H15.4238V26.3799H20.6505ZM17.4459 15.2341H20.136C21.5984 15.2341 22.4288 15.8886 22.4288 17.074C22.4288 18.339 21.463 19.0466 19.7117 19.0466H17.4459V15.2341V15.2341ZM17.4459 24.7612V20.5594H20.1179C22.0316 20.5594 23.0246 21.267 23.0246 22.647C23.0246 24.0269 22.0588 24.7612 20.2353 24.7612H17.4459V24.7612Z" fill="#7B13F7"/>
</svg>
