<svg width="40" height="40" viewBox="0 0 40 40" fill="none" xmlns="http://www.w3.org/2000/svg">
<path d="M40 0H0V40H40V0Z" fill="#512BD4"/>
<path d="M7.12902 25.5555C6.8462 25.5555 6.6058 25.4613 6.40781 25.2728C6.20983 25.0795 6.11084 24.8499 6.11084 24.5841C6.11084 24.3134 6.20983 24.0815 6.40781 23.8881C6.6058 23.6948 6.8462 23.5981 7.12902 23.5981C7.41657 23.5981 7.65933 23.6948 7.85731 23.8881C8.06001 24.0815 8.16136 24.3134 8.16136 24.5841C8.16136 24.8499 8.06001 25.0795 7.85731 25.2728C7.65933 25.4613 7.41657 25.5555 7.12902 25.5555Z" fill="white"/>
<path d="M18.4355 25.3961H16.5971L11.7536 17.7549C11.6311 17.5616 11.5297 17.361 11.4496 17.1532H11.4071C11.4449 17.3755 11.4637 17.8516 11.4637 18.5813V25.3961H9.8374V15H11.796L16.4769 22.4599C16.6749 22.7693 16.8021 22.9819 16.8587 23.0979H16.887C16.8399 22.8225 16.8163 22.3561 16.8163 21.6987V15H18.4355V25.3961Z" fill="white"/>
<path d="M26.355 25.3961H20.6631V15H26.1288V16.4645H22.346V19.4078H25.8319V20.865H22.346V23.9389H26.355V25.3961Z" fill="white"/>
<path d="M34.4445 16.4645H31.5313V25.3961H29.8484V16.4645H26.9424V15H34.4445V16.4645Z" fill="white"/>
</svg>
