<svg width="43" height="43" viewBox="0 0 43 43" fill="none" xmlns="http://www.w3.org/2000/svg">
<ellipse cx="21.5" cy="21.0114" rx="21.5" ry="21.0114" fill="#3D4873"/>
<path d="M16.174 24.687C16.174 23.829 16.427 23.125 16.933 22.575C17.439 22.003 18.187 21.508 19.177 21.09C20.189 20.672 21.564 20.232 23.302 19.77V18.978C23.302 18.252 23.17 17.669 22.906 17.229C22.642 16.767 22.125 16.536 21.355 16.536C20.629 16.536 19.958 16.701 19.342 17.031C18.726 17.339 18.022 17.922 17.23 18.78L16.207 17.031C16.933 16.239 17.747 15.612 18.649 15.15C19.551 14.666 20.519 14.424 21.553 14.424C23.049 14.424 24.116 14.809 24.754 15.579C25.392 16.327 25.711 17.504 25.711 19.11V24.687C25.711 25.391 26.074 25.743 26.8 25.743C27.438 25.743 28.054 25.512 28.648 25.05C29.242 24.566 29.737 23.851 30.133 22.905C30.529 21.937 30.727 20.749 30.727 19.341C30.727 17.757 30.331 16.338 29.539 15.084C28.747 13.83 27.658 12.862 26.272 12.18C24.908 11.476 23.39 11.124 21.718 11.124C19.694 11.124 17.901 11.553 16.339 12.411C14.777 13.247 13.556 14.457 12.676 16.041C11.796 17.625 11.356 19.484 11.356 21.618C11.356 23.598 11.796 25.347 12.676 26.865C13.556 28.361 14.733 29.505 16.207 30.297C17.703 31.111 19.331 31.518 21.091 31.518C22.389 31.518 23.588 31.342 24.688 30.99C25.788 30.638 26.899 30.088 28.021 29.34L29.011 31.122C27.735 32.024 26.47 32.673 25.216 33.069C23.984 33.487 22.598 33.696 21.058 33.696C18.968 33.696 16.977 33.212 15.085 32.244C13.215 31.276 11.697 29.879 10.531 28.053C9.365 26.227 8.782 24.071 8.782 21.585C8.782 19.055 9.343 16.844 10.465 14.952C11.609 13.038 13.16 11.564 15.118 10.53C17.076 9.496 19.265 8.979 21.685 8.979C23.951 8.979 25.964 9.43 27.724 10.332C29.484 11.212 30.848 12.444 31.816 14.028C32.806 15.59 33.301 17.35 33.301 19.308C33.301 21.09 32.971 22.63 32.311 23.928C31.673 25.204 30.826 26.172 29.77 26.832C28.736 27.47 27.647 27.789 26.503 27.789C25.755 27.789 25.117 27.624 24.589 27.294C24.061 26.964 23.698 26.535 23.5 26.007C22.004 27.195 20.651 27.789 19.441 27.789C18.495 27.789 17.714 27.503 17.098 26.931C16.482 26.337 16.174 25.589 16.174 24.687ZM18.583 24.522C18.583 25.314 19.034 25.71 19.936 25.71C20.442 25.71 20.959 25.578 21.487 25.314C22.037 25.028 22.642 24.621 23.302 24.093V21.651C21.52 22.157 20.288 22.619 19.606 23.037C18.924 23.455 18.583 23.95 18.583 24.522Z" fill="#6C81CE"/>
</svg>
