<svg width="43" height="43" viewBox="0 0 43 43" fill="none" xmlns="http://www.w3.org/2000/svg">
<path d="M19.0866 1.12707C9.17648 2.21075 1.20533 10.23 0.128145 19.9832C-0.949037 30.1698 4.86775 39.2727 13.7006 42.7405C14.347 42.9573 14.9933 42.5238 14.9933 41.6568V38.1891C14.9933 38.1891 14.1315 38.4058 13.0543 38.4058C10.0382 38.4058 8.7456 35.805 8.53017 34.2878C8.31473 33.4208 7.88386 32.7706 7.23755 32.1204C6.59124 31.9037 6.3758 31.9037 6.3758 31.687C6.3758 31.2535 7.02211 31.2535 7.23755 31.2535C8.53017 31.2535 9.60735 32.7706 10.0382 33.4208C11.1154 35.1547 12.408 35.5882 13.0543 35.5882C13.9161 35.5882 14.5624 35.3715 14.9933 35.1547C15.2087 33.6376 15.855 32.1204 17.1476 31.2535C12.1926 30.1698 8.53017 27.3522 8.53017 22.584C8.53017 20.1999 9.60735 17.8158 11.1154 16.0819C10.9 15.6484 10.6845 14.5647 10.6845 13.0476C10.6845 12.1806 10.6845 10.8802 11.3308 9.5798C11.3308 9.5798 14.347 9.5798 17.3631 12.3974C18.4402 11.9639 19.9483 11.7472 21.4564 11.7472C22.9644 11.7472 24.4725 11.9639 25.7651 12.3974C28.5658 9.5798 31.7973 9.5798 31.7973 9.5798C32.2282 10.8802 32.2282 12.1806 32.2282 13.0476C32.2282 14.7815 32.0127 15.6484 31.7973 16.0819C33.3054 17.8158 34.3825 19.9832 34.3825 22.584C34.3825 27.3522 30.7201 30.1698 25.7651 31.2535C27.0577 32.3372 27.9194 34.2878 27.9194 36.2384V41.8736C27.9194 42.5238 28.5658 43.174 29.4275 42.9573C37.3987 39.7062 43 31.9037 43 22.8007C43 9.79654 32.0127 -0.390092 19.0866 1.12707Z" fill="#3D4873"/>
</svg>
