<svg width="40" height="40" viewBox="0 0 40 40" fill="none" xmlns="http://www.w3.org/2000/svg">
<path d="M40 0H0.000229418C0.000229418 0 0 1.74889 0 3.90625V40H3.90625H36.0938H40L40 3.90625V0Z" fill="#E535AB"/>
<path d="M9.30945 26.1398L10.2944 26.7085L21.2676 7.70296L20.2826 7.13426L9.30945 26.1398Z" fill="#FEFEFE"/>
<path d="M31.0298 24.6213H9.0835V25.7587H31.0298V24.6213Z" fill="#FEFEFE"/>
<path d="M9.51784 25.2605L20.4951 31.5984L21.0638 30.6134L10.0865 24.2755L9.51784 25.2605Z" fill="#FEFEFE"/>
<path d="M19.054 8.74264L30.0312 15.0806L30.6 14.0956L19.6227 7.75765L19.054 8.74264Z" fill="#FEFEFE"/>
<path d="M9.52066 14.0907L10.0894 15.0757L21.0666 8.73776L20.4979 7.75277L9.52066 14.0907Z" fill="#FEFEFE"/>
<path d="M18.8545 7.70296L29.8276 26.7085L30.8126 26.1398L19.8394 7.13426L18.8545 7.70296Z" fill="#FEFEFE"/>
<path d="M11.091 13.3367H9.95361V26.0125H11.091V13.3367Z" fill="#FEFEFE"/>
<path d="M30.1667 13.3367H29.0293V26.0125H30.1667V13.3367Z" fill="#FEFEFE"/>
<path d="M19.805 30.2563L20.3018 31.1167L29.849 25.6044L29.3523 24.744L19.805 30.2563Z" fill="#FEFEFE"/>
<path d="M31.6736 26.3823C31.0159 27.5265 29.5496 27.9171 28.4053 27.2593C27.2611 26.6015 26.8705 25.1353 27.5283 23.991C28.1861 22.8468 29.6523 22.4562 30.7966 23.114C31.9477 23.7786 32.3383 25.238 31.6736 26.3823Z" fill="#FEFEFE"/>
<path d="M12.5848 15.3579C11.927 16.5021 10.4607 16.8927 9.31645 16.2349C8.1722 15.5771 7.78164 14.1108 8.43942 12.9666C9.09719 11.8223 10.5635 11.4318 11.7077 12.0896C12.852 12.7542 13.2425 14.2136 12.5848 15.3579Z" fill="#FEFEFE"/>
<path d="M8.44625 26.3823C7.78848 25.238 8.17903 23.7786 9.32328 23.114C10.4675 22.4562 11.927 22.8468 12.5916 23.991C13.2494 25.1353 12.8588 26.5947 11.7146 27.2593C10.5635 27.9171 9.10403 27.5265 8.44625 26.3823Z" fill="#FEFEFE"/>
<path d="M27.5351 15.3579C26.8773 14.2136 27.2679 12.7542 28.4121 12.0896C29.5564 11.4318 31.0158 11.8223 31.6805 12.9666C32.3382 14.1108 31.9477 15.5703 30.8034 16.2349C29.6592 16.8927 28.1929 16.5021 27.5351 15.3579Z" fill="#FEFEFE"/>
<path d="M20.0597 33.0902C18.7373 33.0902 17.6685 32.0213 17.6685 30.6989C17.6685 29.3765 18.7373 28.3076 20.0597 28.3076C21.3821 28.3076 22.451 29.3765 22.451 30.6989C22.451 32.0144 21.3821 33.0902 20.0597 33.0902Z" fill="#FEFEFE"/>
<path d="M20.0597 11.0411C18.7373 11.0411 17.6685 9.97223 17.6685 8.64983C17.6685 7.32743 18.7373 6.25854 20.0597 6.25854C21.3821 6.25854 22.451 7.32743 22.451 8.64983C22.451 9.97223 21.3821 11.0411 20.0597 11.0411Z" fill="#FEFEFE"/>
</svg>
