<svg width="43" height="43" viewBox="0 0 43 43" fill="none" xmlns="http://www.w3.org/2000/svg">
<path fill-rule="evenodd" clip-rule="evenodd" d="M21.5 42.0227C33.3741 42.0227 43 32.6156 43 21.0114C43 9.40711 33.3741 0 21.5 0C9.62588 0 0 9.40711 0 21.0114C0 32.6156 9.62588 42.0227 21.5 42.0227ZM26.9551 10.2724C25.5316 10.209 25.1046 10.1956 21.5 10.1956C17.8953 10.1956 17.4684 10.209 16.0448 10.2724C14.7286 10.3311 14.0138 10.5461 13.5381 10.7267C12.9079 10.966 12.4582 11.252 11.9858 11.7136C11.5134 12.1753 11.2208 12.6148 10.976 13.2306C10.7911 13.6955 10.5712 14.3941 10.5111 15.6804C10.4461 17.0716 10.4324 17.4888 10.4324 21.0116C10.4324 24.5343 10.4461 24.9516 10.5111 26.3428C10.5712 27.629 10.7911 28.3276 10.976 28.7926C11.2208 29.4083 11.5134 29.8479 11.9858 30.3095C12.4582 30.7712 12.9079 31.0571 13.5381 31.2964C14.0138 31.4771 14.7286 31.692 16.0448 31.7507C17.4681 31.8142 17.8951 31.8276 21.5 31.8276C25.1049 31.8276 25.5318 31.8142 26.9551 31.7507C28.2713 31.692 28.9862 31.4771 29.4619 31.2964C30.092 31.0571 30.5418 30.7712 31.0142 30.3095C31.4865 29.8479 31.7791 29.4083 32.024 28.7926C32.2089 28.3276 32.4288 27.629 32.4888 26.3427C32.5538 24.9516 32.5675 24.5343 32.5675 21.0116C32.5675 17.4888 32.5538 17.0716 32.4888 15.6804C32.4288 14.3941 32.2089 13.6955 32.024 13.2306C31.7791 12.6148 31.4865 12.1753 31.0142 11.7136C30.5418 11.252 30.092 10.966 29.4619 10.7267C28.9862 10.5461 28.2713 10.3311 26.9551 10.2724ZM15.934 7.89775C17.3739 7.83355 17.8336 7.81836 21.5 7.81836C25.1664 7.81836 25.6261 7.83355 27.066 7.89775C28.503 7.96185 29.4843 8.18485 30.343 8.51101C31.2308 8.84817 31.9836 9.29929 32.7341 10.0327C33.4846 10.7662 33.9462 11.5019 34.2912 12.3695C34.625 13.2087 34.8532 14.1677 34.9188 15.5721C34.9845 16.9792 35 17.4285 35 21.0116C35 24.5946 34.9845 25.0439 34.9188 26.4511C34.8532 27.8554 34.625 28.8144 34.2912 29.6536C33.9462 30.5212 33.4846 31.2569 32.7341 31.9904C31.9836 32.7238 31.2308 33.175 30.343 33.5121C29.4843 33.8383 28.503 34.0613 27.066 34.1254C25.6261 34.1896 25.1664 34.2047 21.5 34.2047C17.8336 34.2047 17.3739 34.1896 15.934 34.1254C14.497 34.0613 13.5157 33.8383 12.6569 33.5121C11.7692 33.175 11.0163 32.7238 10.2658 31.9904C9.51532 31.2569 9.05371 30.5211 8.70871 29.6536C8.37496 28.8144 8.14678 27.8554 8.08119 26.4511C8.01549 25.0439 8 24.5946 8 21.0116C8 17.4285 8.01549 16.9792 8.08119 15.5721C8.14678 14.1677 8.37496 13.2087 8.70871 12.3695C9.05371 11.5019 9.51532 10.7662 10.2658 10.0327C11.0163 9.29929 11.7692 8.84817 12.6569 8.51101C13.5157 8.18485 14.497 7.96185 15.934 7.89775ZM14.5675 21.0116C14.5675 17.2699 17.6713 14.2367 21.5 14.2367C25.3286 14.2367 28.4324 17.2699 28.4324 21.0116C28.4324 24.7532 25.3286 27.7865 21.5 27.7865C17.6713 27.7865 14.5675 24.7532 14.5675 21.0116ZM16.9999 21.0116C16.9999 23.4404 19.0147 25.4093 21.5 25.4093C23.9852 25.4093 26 23.4404 26 21.0116C26 18.5828 23.9852 16.6138 21.5 16.6138C19.0147 16.6138 16.9999 18.5828 16.9999 21.0116ZM28.7063 15.5522C29.601 15.5522 30.3263 14.8434 30.3263 13.969C30.3263 13.0946 29.601 12.3858 28.7063 12.3858C27.8116 12.3858 27.0863 13.0946 27.0863 13.969C27.0863 14.8434 27.8116 15.5522 28.7063 15.5522Z" fill="#3D4873"/>
</svg>
