<svg width="40" height="40" viewBox="0 0 40 40" fill="none" xmlns="http://www.w3.org/2000/svg">
<path d="M40 0H0V40H40V0Z" fill="#F7DF1E"/>
<path d="M26.87 29.25C27.6757 30.5656 28.724 31.5326 30.5779 31.5326C32.1354 31.5326 33.1303 30.7542 33.1303 29.6786C33.1303 28.3897 32.1081 27.9332 30.3938 27.1834L29.4541 26.7802C26.7418 25.6246 24.9398 24.177 24.9398 21.1167C24.9398 18.2976 27.0878 16.1516 30.4446 16.1516C32.8344 16.1516 34.5525 16.9834 35.7906 19.1611L32.8637 21.0405C32.2192 19.8849 31.524 19.4297 30.4446 19.4297C29.3437 19.4297 28.6459 20.1281 28.6459 21.0405C28.6459 22.1681 29.3443 22.6246 30.957 23.323L31.8967 23.7256C35.0903 25.0951 36.8935 26.4913 36.8935 29.6303C36.8935 33.0145 34.2351 34.8684 30.6649 34.8684C27.1741 34.8684 24.9189 33.2049 23.8154 31.0246L26.87 29.25ZM13.5919 29.5757C14.1824 30.6234 14.7195 31.5091 16.011 31.5091C17.2459 31.5091 18.0249 31.0259 18.0249 29.1472V16.3662H21.7837V29.198C21.7837 33.09 19.5018 34.8615 16.171 34.8615C13.1614 34.8615 11.4186 33.304 10.5322 31.4281L13.5919 29.5757Z" fill="black"/>
</svg>
