<svg width="40" height="40" viewBox="0 0 40 40" fill="none" xmlns="http://www.w3.org/2000/svg">
<path d="M0 0H40V40H0V0V0ZM19.9894 17.0523C18.3624 17.0523 17.0312 18.3835 17.0312 20.0106C17.0312 21.215 17.7496 22.2927 18.8484 22.7364C19.9472 23.2013 21.215 22.9477 22.0602 22.1025C22.9054 21.2573 23.159 19.9894 22.6941 18.8906C22.2715 17.7707 21.1939 17.0523 19.9894 17.0523ZM27.5964 17.9609C25.0607 17.9609 25.1241 22.018 27.6175 22.018H32.1606C34.7385 22.018 34.3159 18.954 34.168 18.1511C34.1469 18.0454 34.0412 17.9609 33.9356 17.9609H27.5964ZM12.4036 22.018C14.9392 22.018 14.8759 17.9609 12.3825 17.9609H7.83941C5.26149 17.9609 5.6841 21.0248 5.83201 21.8278C5.85314 21.9334 5.9588 22.018 6.06445 22.018H12.4036ZM23.9197 13.1854C22.1447 14.9604 25.0396 17.7919 26.8146 16.038L30.0264 12.8262C31.8436 11.009 29.3925 9.12837 28.7163 8.68463C28.6107 8.62123 28.4839 8.62124 28.3994 8.70576L23.9197 13.1854ZM16.0592 26.7934C17.8341 25.0185 14.9392 22.187 13.1643 23.9408L9.95246 27.1527C8.13523 28.9699 10.5864 30.8294 11.2625 31.2942C11.3682 31.3576 11.495 31.3365 11.5795 31.2731L16.0592 26.7934ZM17.9609 12.3825C17.9609 14.9181 22.018 14.8547 22.018 12.3613V7.81828C22.018 5.24036 18.954 5.66297 18.1511 5.81088C18.0454 5.83201 17.9609 5.93766 17.9609 6.04332V12.3825ZM22.018 27.5964C22.018 25.0608 17.9609 25.1241 17.9609 27.6175V32.1606C17.9609 34.7385 21.0248 34.3159 21.8278 34.168C21.9334 34.1469 22.018 34.0412 22.018 33.9356V27.5964V27.5964ZM13.1854 16.0592C14.9604 17.8553 17.7919 14.9392 16.038 13.1643L12.8262 9.95245C11.009 8.13523 9.12837 10.5864 8.68463 11.2625C8.62124 11.3682 8.62124 11.495 8.70576 11.5584L13.1854 16.0592ZM26.7934 23.9197C25.0185 22.1236 22.187 25.0396 23.9408 26.8146L27.1527 30.0264C28.9699 31.8436 30.8505 29.3925 31.2942 28.7163C31.3576 28.6107 31.3576 28.4839 31.2731 28.4205L26.7934 23.9197Z" fill="#F05A22"/>
</svg>
