<svg width="43" height="43" viewBox="0 0 43 43" fill="none" xmlns="http://www.w3.org/2000/svg">
<path fill-rule="evenodd" clip-rule="evenodd" d="M21.5 43C33.3741 43 43 33.3741 43 21.5C43 9.62588 33.3741 0 21.5 0C9.62588 0 0 9.62588 0 21.5C0 33.3741 9.62588 43 21.5 43ZM12.0749 34.1332H16.2604V19.1008H12.0749V34.1332ZM11.6847 14.2277C11.6847 15.7307 12.7758 16.9517 14.1251 16.9517C15.4701 16.9517 16.564 15.7307 16.564 14.2277C16.564 12.7264 15.4701 11.5054 14.1251 11.5054C12.7772 11.5054 11.6847 12.7248 11.6847 14.2277ZM27.7556 34.1332H31.9383V25.8885C31.9383 21.8405 31.1551 18.727 26.9171 18.727C24.8811 18.727 23.5162 19.9734 22.9572 21.1548H22.9004V19.1008H18.8852V34.1332H23.0679V26.6962C23.0679 24.7355 23.4027 22.8367 25.5806 22.8367C27.7273 22.8367 27.7556 25.0792 27.7556 26.8228V34.1332Z" fill="#3D4873"/>
</svg>
