<svg width="40" height="40" viewBox="0 0 40 40" fill="none" xmlns="http://www.w3.org/2000/svg">
<rect width="40" height="40" fill="#6082BB"/>
<path d="M8.29886 16.0706H12.6072C13.8718 16.0812 14.7881 16.4458 15.3562 17.1637C15.9243 17.8817 16.1118 18.8623 15.9189 20.1056C15.8439 20.6737 15.6777 21.2309 15.4205 21.7775C15.1739 22.3241 14.8312 22.817 14.3916 23.2565C13.8557 23.8137 13.2824 24.1674 12.6715 24.3175C12.0606 24.4677 11.4282 24.5426 10.7746 24.5426H8.84544L8.23456 27.597H6L8.29886 16.0706V16.0706ZM10.1797 17.9032L9.21519 22.726C9.2795 22.7366 9.3438 22.7421 9.4081 22.7421C9.48302 22.7421 9.55825 22.7421 9.63317 22.7421C10.662 22.7527 11.5195 22.6511 12.2053 22.4366C12.8911 22.2116 13.3522 21.4293 13.5879 20.0895C13.7808 18.9642 13.5879 18.3157 13.0091 18.1444C12.441 17.973 11.7285 17.8926 10.871 17.9032C10.7424 17.9138 10.6193 17.9193 10.5013 17.9193C10.3942 17.9193 10.2817 17.9193 10.1637 17.9193L10.1797 17.9032" fill="#FEFEFE"/>
<path d="M18.4644 13H20.6828L20.0559 16.0705H22.0493C23.1425 16.092 23.9569 16.3171 24.4928 16.7457C25.0394 17.1743 25.2002 17.989 24.9751 19.1892L23.898 24.5425H21.6474L22.6763 19.4304C22.7833 18.8944 22.7512 18.5141 22.5798 18.289C22.4084 18.0639 22.0387 17.9514 21.4706 17.9514L19.6861 17.9353L18.3679 24.5425H16.1494L18.4644 13Z" fill="#FEFEFE"/>
<path d="M27.3575 16.0706H31.6658C32.9303 16.0812 33.8467 16.4458 34.4148 17.1637C34.9829 17.8817 35.1704 18.8623 34.9775 20.1056C34.9025 20.6737 34.7363 21.2309 34.4791 21.7775C34.2325 22.3241 33.8897 22.817 33.4502 23.2565C32.9143 23.8137 32.341 24.1674 31.7301 24.3175C31.1192 24.4677 30.4868 24.5426 29.8331 24.5426H27.904L27.2931 27.597H25.0586L27.3575 16.0706V16.0706ZM29.2383 17.9032L28.2738 22.726C28.3381 22.7366 28.4024 22.7421 28.4667 22.7421C28.5416 22.7421 28.6168 22.7421 28.6918 22.7421C29.7206 22.7527 30.5781 22.6511 31.2639 22.4366C31.9497 22.2116 32.4108 21.4293 32.6464 20.0895C32.8394 18.9642 32.6464 18.3157 32.0677 18.1444C31.4996 17.973 30.7871 17.8926 29.9296 17.9032C29.801 17.9138 29.6778 17.9193 29.5599 17.9193C29.4528 17.9193 29.3403 17.9193 29.2223 17.9193L29.2383 17.9032" fill="#FEFEFE"/>
</svg>
