<svg width="40" height="40" viewBox="0 0 40 40" fill="none" xmlns="http://www.w3.org/2000/svg">
<rect width="40" height="40" fill="#F1F1F1"/>
<path d="M19.8991 6C12.7909 6 13.2348 9.09865 13.2348 9.09865L13.2427 12.3088H20.0259V13.2727H10.5485C10.5485 13.2727 6 12.7541 6 19.9639C6 27.1736 9.97003 26.9179 9.97003 26.9179H12.3394V23.5723C12.3394 23.5723 12.2117 19.5815 16.246 19.5815C20.2804 19.5815 22.9737 19.5815 22.9737 19.5815C22.9737 19.5815 26.7535 19.6429 26.7535 15.9093C26.7535 12.1757 26.7535 9.73591 26.7535 9.73591C26.7535 9.73591 27.3274 6 19.8991 6ZM16.1588 8.1587C16.8337 8.1587 17.3792 8.70701 17.3792 9.38542C17.3792 10.0638 16.8337 10.6121 16.1588 10.6121C15.484 10.6121 14.9385 10.0638 14.9385 9.38542C14.9385 8.70701 15.484 8.1587 16.1588 8.1587Z" fill="url(#paint0_linear_89_42)"/>
<path d="M20.101 34.0001C27.2092 34.0001 26.7653 30.9014 26.7653 30.9014L26.7574 27.6913H19.9743V26.7274H29.4516C29.4516 26.7274 34.0001 27.2459 34.0001 20.0362C34.0001 12.8265 30.0301 13.0822 30.0301 13.0822H27.6607V16.4278C27.6607 16.4278 27.7885 20.4186 23.7541 20.4186C19.7198 20.4186 17.0265 20.4186 17.0265 20.4186C17.0265 20.4186 13.2466 20.3572 13.2466 24.0908C13.2466 27.8244 13.2466 30.2642 13.2466 30.2642C13.2466 30.2642 12.6727 34.0001 20.101 34.0001ZM23.8413 31.8414C23.1664 31.8414 22.6209 31.2931 22.6209 30.6147C22.6209 29.9363 23.1664 29.3879 23.8413 29.3879C24.5161 29.3879 25.0616 29.9363 25.0616 30.6147C25.0616 31.2931 24.5161 31.8414 23.8413 31.8414Z" fill="url(#paint1_linear_89_42)"/>
<defs>
<linearGradient id="paint0_linear_89_42" x1="8.69085" y1="8.44745" x2="22.6086" y2="22.339" gradientUnits="userSpaceOnUse">
<stop stop-color="#387EB8"/>
<stop offset="1" stop-color="#366994"/>
</linearGradient>
<linearGradient id="paint1_linear_89_42" x1="17.2079" y1="17.3309" x2="32.152" y2="31.5736" gradientUnits="userSpaceOnUse">
<stop stop-color="#FFE052"/>
<stop offset="1" stop-color="#FFC331"/>
</linearGradient>
</defs>
</svg>
