<svg width="40" height="40" viewBox="0 0 40 40" fill="none" xmlns="http://www.w3.org/2000/svg">
<rect width="40" height="40" fill="#CA689B"/>
<path d="M30.8323 21.6469C29.7857 21.6523 28.8761 21.8988 28.1145 22.2631C27.835 21.722 27.5555 21.2397 27.5062 20.8861C27.4514 20.4735 27.3857 20.2216 27.4514 19.7287C27.5172 19.2357 27.8131 18.5338 27.8076 18.4802C27.8021 18.4266 27.7418 18.1748 27.1391 18.1694C26.5363 18.1641 26.0158 18.2819 25.9555 18.4373C25.8952 18.5927 25.7801 18.9464 25.7034 19.3107C25.5993 19.8466 24.4979 21.7595 23.8678 22.7615C23.665 22.3703 23.4897 22.0274 23.4513 21.7541C23.3965 21.3415 23.3308 21.0897 23.3965 20.5967C23.4623 20.1038 23.7582 19.4018 23.7527 19.3482C23.7472 19.2947 23.6869 19.0428 23.0842 19.0375C22.4814 19.0321 21.9608 19.15 21.9006 19.3054C21.8403 19.4608 21.7745 19.8251 21.6485 20.1788C21.5225 20.5324 20.0594 23.726 19.6758 24.5511C19.4786 24.9744 19.3087 25.312 19.1882 25.5424C19.1882 25.5424 19.1827 25.5585 19.1662 25.5853C19.0621 25.7835 19.0019 25.8907 19.0019 25.8907C19.0019 25.8907 19.0019 25.8907 19.0019 25.8961C18.9197 26.0407 18.832 26.1747 18.7882 26.1747C18.7553 26.1747 18.695 25.7889 18.7991 25.2638C19.0183 24.1546 19.5389 22.4293 19.5334 22.3703C19.5334 22.3382 19.632 22.0381 19.1936 21.8827C18.7662 21.7273 18.6128 21.9845 18.5744 21.9845C18.5361 21.9845 18.5087 22.0756 18.5087 22.0756C18.5087 22.0756 18.9854 20.1359 17.5991 20.1359C16.7333 20.1359 15.5387 21.0629 14.9469 21.8988C14.5743 22.097 13.7798 22.5203 12.9304 22.9758C12.6071 23.1526 12.2729 23.3294 11.9605 23.4955C11.9386 23.4741 11.9167 23.4473 11.8948 23.4259C10.218 21.6737 7.11657 20.436 7.24808 18.0837C7.2974 17.2264 7.59877 14.9759 13.2044 12.2432C17.8183 10.0195 21.4896 10.6357 22.1252 12.002C23.0349 13.9525 20.1581 17.5747 15.3908 18.0998C13.5716 18.298 12.6181 17.6122 12.377 17.355C12.1249 17.087 12.0866 17.071 11.9934 17.1246C11.84 17.2049 11.9386 17.4461 11.9934 17.5854C12.1359 17.9497 12.7222 18.5927 13.714 18.9089C14.5908 19.1875 16.7223 19.3429 19.3032 18.3677C22.191 17.2746 24.4486 14.2364 23.7856 11.6913C23.1225 9.10858 18.7388 8.25661 14.5908 9.69799C12.1249 10.5553 9.45089 11.9056 7.52754 13.6631C5.24254 15.7528 4.88089 17.5693 5.02883 18.3302C5.56036 21.0307 9.36869 22.7883 10.892 24.0903C10.8153 24.1332 10.7441 24.1707 10.6838 24.2028C9.92213 24.5726 7.01794 26.0568 6.29463 27.6268C5.47268 29.4057 6.42614 30.681 7.05629 30.8525C9.01252 31.3829 11.0235 30.4292 12.103 28.8538C13.1825 27.2785 13.051 25.2316 12.5523 24.2939C12.5469 24.2832 12.5414 24.2725 12.5304 24.2618C12.7277 24.1493 12.9304 24.0314 13.1277 23.9188C13.5168 23.6938 13.9003 23.4848 14.2291 23.3134C14.0428 23.8117 13.9058 24.4065 13.8401 25.2638C13.7579 26.2711 14.1798 27.5785 14.7332 28.0929C14.9798 28.318 15.2702 28.3234 15.4565 28.3234C16.1031 28.3234 16.3936 27.7982 16.7169 27.1767C17.1114 26.4158 17.4676 25.5317 17.4676 25.5317C17.4676 25.5317 17.0237 27.9215 18.2292 27.9215C18.6676 27.9215 19.1114 27.3642 19.3087 27.0802C19.3087 27.0856 19.3087 27.0856 19.3087 27.0856C19.3087 27.0856 19.3197 27.0695 19.3416 27.032C19.3854 26.9623 19.4128 26.9195 19.4128 26.9195C19.4128 26.9195 19.4128 26.9141 19.4128 26.9088C19.5882 26.6087 19.9827 25.9282 20.569 24.7976C21.3252 23.3402 22.054 21.5183 22.054 21.5183C22.054 21.5183 22.1198 21.9631 22.3444 22.7025C22.4759 23.1365 22.7499 23.6134 22.9691 24.0742C22.7938 24.3154 22.6842 24.4493 22.6842 24.4493C22.6842 24.4493 22.6842 24.4493 22.6896 24.4547C22.5472 24.6369 22.3937 24.8351 22.2239 25.028C21.6266 25.7246 20.9142 26.523 20.8156 26.7534C20.7005 27.0266 20.7279 27.2249 20.9471 27.3857C21.106 27.5035 21.391 27.5196 21.6814 27.5035C22.2184 27.466 22.5965 27.3374 22.7828 27.2571C23.0732 27.1552 23.4129 26.9999 23.7308 26.7695C24.3171 26.3461 24.6733 25.7407 24.6404 24.9423C24.6239 24.5029 24.476 24.0635 24.2952 23.6509C24.35 23.5759 24.3993 23.5009 24.4541 23.4259C25.3801 22.1024 26.098 20.6503 26.098 20.6503C26.098 20.6503 26.1637 21.095 26.3884 21.8345C26.498 22.2096 26.7226 22.6168 26.9199 23.0133C26.0486 23.7045 25.5116 24.5083 25.3199 25.0334C24.9746 26.0086 25.2431 26.448 25.7527 26.5498C25.9829 26.598 26.3117 26.4908 26.5528 26.389C26.8596 26.2926 27.2213 26.1265 27.5665 25.88C28.1528 25.4567 28.7172 24.8673 28.6843 24.0689C28.6679 23.7045 28.5693 23.3455 28.4323 22.9972C29.172 22.6972 30.1255 22.5311 31.342 22.6704C33.9503 22.9704 34.4653 24.5618 34.3667 25.2316C34.2681 25.9014 33.7201 26.2658 33.5393 26.3783C33.3585 26.4908 33.2982 26.5283 33.3146 26.6087C33.3365 26.7266 33.4242 26.7212 33.5776 26.6998C33.7913 26.6623 34.9475 26.1586 34.9969 24.9262C35.0791 23.3509 33.5448 21.6309 30.8323 21.6469ZM10.7112 28.2805C9.84542 29.2021 8.6399 29.5504 8.11934 29.2557C7.56042 28.9396 7.7796 27.5785 8.84265 26.6033C9.48924 26.0086 10.3221 25.4567 10.8756 25.1191C11.0016 25.0441 11.1879 24.9369 11.4126 24.803C11.4509 24.7815 11.4729 24.7708 11.4729 24.7708C11.5167 24.744 11.5605 24.7172 11.6044 24.6904C11.9934 26.0836 11.6208 27.3106 10.7112 28.2805ZM17.0128 24.0903C16.7114 24.8083 16.0812 26.6462 15.6976 26.5444C15.3689 26.4587 15.1661 25.0655 15.6319 23.6884C15.8675 22.9972 16.3662 22.1721 16.6566 21.8506C17.1278 21.3362 17.6484 21.1647 17.7744 21.3737C17.9333 21.6469 17.1991 23.6402 17.0128 24.0903ZM22.2129 26.523C22.0869 26.5873 21.9663 26.6301 21.9115 26.598C21.8732 26.5766 21.9663 26.4908 21.9663 26.4908C21.9663 26.4908 22.6184 25.805 22.8759 25.4942C23.0239 25.312 23.1992 25.0977 23.3855 24.8565C23.3855 24.878 23.3855 24.9048 23.3855 24.9262C23.3855 25.746 22.5746 26.2979 22.2129 26.523ZM26.224 25.6281C26.1308 25.5638 26.1473 25.3495 26.4596 24.6797C26.5802 24.4172 26.8651 23.9778 27.3528 23.5545C27.4076 23.726 27.4459 23.8921 27.4405 24.0474C27.435 25.0816 26.6788 25.4674 26.224 25.6281Z" fill="#FEFEFE"/>
</svg>
