<svg width="40" height="40" viewBox="0 0 40 40" fill="none" xmlns="http://www.w3.org/2000/svg">
<g clip-path="url(#clip0_91_75)">
<path d="M40 0H0.000229418C0.000229418 0 0 1.74889 0 3.90625V40H3.90625H36.0938H40L40 3.90625V0Z" fill="#386FAC"/>
<path fill-rule="evenodd" clip-rule="evenodd" d="M24.7656 28.7969V32.7032C25.3984 33.0313 26.1719 33.2735 27.0312 33.4375C27.8906 33.6016 28.8281 33.6797 29.7656 33.6797C30.7031 33.6797 31.5625 33.5938 32.4219 33.4141C33.2812 33.2344 33.9844 32.9375 34.6094 32.5547C35.2422 32.1407 35.7812 31.6172 36.0938 30.9141C36.4062 30.211 36.6484 29.4297 36.6484 28.4141C36.6484 27.7032 36.5391 27.086 36.3281 26.5391C36.1172 25.9922 35.8125 25.5235 35.3906 25.1329C34.9922 24.7188 34.5312 24.3516 33.9844 24.0391C33.4375 23.7266 32.8125 23.3985 32.1094 23.1016C31.5938 22.8907 31.1719 22.6875 30.7031 22.4844C30.2969 22.2813 29.9453 22.0782 29.6875 21.875C29.3984 21.6641 29.1797 21.4454 29.0234 21.2188C28.8672 20.9844 28.7891 20.7266 28.7891 20.4375C28.7891 20.1719 28.8586 19.9297 29 19.711C29.1414 19.4922 29.3359 19.3125 29.5859 19.1563C29.8359 19 30.1484 18.8829 30.5234 18.7969C30.8906 18.711 31.2969 18.6719 31.7734 18.6719C32.1016 18.6719 32.4453 18.6961 32.7891 18.7454C33.1484 18.7946 33.5156 18.8704 33.8828 18.9719C34.25 19.0735 34.6094 19.1985 34.9766 19.3547C35.3203 19.511 35.6406 19.6907 35.9141 19.8938V16.2219C35.3203 15.9954 34.6641 15.8235 33.9609 15.7141C33.2578 15.6047 32.4766 15.55 31.5391 15.55C30.6016 15.55 29.7422 15.6516 28.8828 15.8469C28.0234 16.0422 27.3203 16.3547 26.6953 16.7844C26.0625 17.2063 25.6016 17.7219 25.2109 18.425C24.8438 19.0813 24.6641 19.8313 24.6641 20.7688C24.6641 21.9407 25 22.9563 25.6797 23.7375C26.3516 24.5969 27.3984 25.2219 28.7266 25.8469C29.2656 26.0657 29.7422 26.2844 30.2109 26.4954C30.6797 26.7063 31.0703 26.925 31.3828 27.1516C31.7188 27.3782 31.9844 27.6282 32.1641 27.8938C32.3594 28.1594 32.4609 28.4719 32.4609 28.8313C32.4609 29.0813 32.4 29.3157 32.2813 29.5344C32.1625 29.7532 31.9766 29.9407 31.7266 30.0969C31.4766 30.2532 31.1719 30.3782 30.7891 30.4719C30.4219 30.5579 30.0078 30.6047 29.4609 30.6047C28.6016 30.6047 27.7422 30.4563 26.9609 30.1594C26.1016 29.8625 25.3203 29.4172 24.6172 28.8313L24.7656 28.7969ZM18.2031 19.1875H23.2031V15.9844H9.21875V19.1875H14.2188V33.4844H18.2031V19.1875Z" fill="white"/>
</g>
<defs>
<clipPath id="clip0_91_75">
<rect width="40" height="40" fill="white"/>
</clipPath>
</defs>
</svg>
