<svg width="40" height="40" viewBox="0 0 40 40" fill="none" xmlns="http://www.w3.org/2000/svg">
<path d="M8.46396 15.969C8.66296 15.969 8.82396 15.808 8.82396 15.609C8.82396 12.913 11.017 10.719 13.714 10.719C14.396 10.719 14.834 10.754 15.337 10.945C15.523 11.016 15.731 10.922 15.801 10.737C15.872 10.551 15.779 10.343 15.593 10.273C14.928 10.021 14.349 10 13.715 10C10.622 10 8.10596 12.516 8.10596 15.609C8.10396 15.808 8.26496 15.969 8.46396 15.969ZM34.721 22.8371C34.721 25.9261 32.207 28.4401 29.118 28.4401H10.716C8.115 28.4401 6 26.3131 6 23.6981C6 21.0841 8.115 18.9571 10.716 18.9571C11.36 18.9571 11.999 19.0901 12.59 19.3451C13.199 15.5331 16.47 12.7201 20.4 12.7201C23.576 12.7201 26.382 14.5601 27.641 17.4371C28.127 17.3031 28.622 17.2361 29.119 17.2361C32.208 17.2351 34.721 19.7481 34.721 22.8371ZM34.001 22.8371C34.001 20.1451 31.812 17.9551 29.119 17.9551C28.592 17.9551 28.063 18.0431 27.551 18.2181C27.365 18.2821 27.169 18.1871 27.099 18.0081C26.019 15.2331 23.39 13.4401 20.401 13.4401C16.67 13.4401 13.592 16.2291 13.242 19.9271C13.23 20.0491 13.158 20.1561 13.05 20.2131C12.942 20.2711 12.813 20.2671 12.706 20.2061C12.1 19.8601 11.412 19.6771 10.718 19.6771C8.514 19.6771 6.722 21.4811 6.722 23.6981C6.722 25.9151 8.514 27.7191 10.718 27.7191H29.12C31.811 27.7191 34.001 25.5291 34.001 22.8371Z" stroke="url(#paint0_linear_104_50)" stroke-width="1.8"/>
<defs>
<linearGradient id="paint0_linear_104_50" x1="20.3605" y1="10" x2="20.3605" y2="28.4401" gradientUnits="userSpaceOnUse">
<stop stop-color="#5169C5"/>
<stop offset="1" stop-color="#111111"/>
</linearGradient>
</defs>
</svg>
