<svg width="1600" height="2000" xmlns="http://www.w3.org/2000/svg" version="1.1">
 <g>
  <title>Layer 1</title>
  <path id="svg_1" d="m0,202.5641l1600,0l0,1800l-1600,0l0,-1800z" opacity="undefined" stroke="null" fill="#1b1d25"/>
  <g fill="#272830" id="svg_2">
   <circle r="212.33372" cx="227.27171" cy="475.59311" id="svg_3" fill="#1f2128"/>
   <circle r="66" cx="981.62399" cy="293.53058" id="svg_4" fill="#1f2128"/>
   <circle r="87" cx="540.88486" cy="900.99995" id="svg_5" fill="#1f2128"/>
   <circle r="99" cx="1244.27859" cy="848.46801" id="svg_6" fill="#1f2128"/>
   <circle r="40.09416" cx="457.81643" cy="616.48722" id="svg_9" fill="#1f2128"/>
   <circle r="19.97686" cx="393.66324" cy="672.1606" id="svg_10" fill="#1f2128"/>
   <circle r="16.20487" cx="899.21432" cy="253.30433" id="svg_11" fill="#1f2128"/>
   <circle r="16.20487" cx="1074.04088" cy="306.63488" id="svg_12" fill="#1f2128"/>
   <circle r="27.9054" cx="1365.19507" cy="918.11877" id="svg_13" fill="#1f2128"/>
   <circle r="16.58941" cx="1316.15915" cy="954.58138" id="svg_14" fill="#1f2128"/>
   <circle r="8.41674" cx="1277.95545" cy="967.84403" id="svg_15" fill="#1f2128"/>
   <circle r="187.92125" cx="1403.29047" cy="1417.35159" id="svg_16" fill="#1f2128"/>
   <circle fill="#1b1d25" r="63.1711" cx="1282.0509" cy="1291.06461" id="svg_17"/>
   <circle r="183.42857" cx="348.30243" cy="1678.19777" id="svg_7" fill="#1f2128"/>
  </g>
  <g stroke="null">
   <path stroke="null" fill="#2b324a" d="m-1.28206,210.20963l37.82051,-1.60256c38.14103,-1.60256 113.78205,-4.80769 190.38461,-3.84615c76.28205,1.28205 153.20513,6.41026 229.48718,19.87179c76.60256,13.46154 152.24359,34.61538 228.84615,36.85897c76.28205,2.24359 153.20513,-15.0641 229.48718,-19.23077c76.60256,-4.16667 152.24359,4.16667 228.84615,13.46154c76.28205,8.97436 153.20513,18.58974 229.48718,16.98718c76.60256,-1.60256 152.24359,-14.42308 190.38461,-20.83333l37.82051,-6.41026l0,-256.41026l-37.82051,0c-38.14103,0 -113.78205,0 -190.38461,0c-76.28205,0 -153.20513,0 -229.48718,0c-76.60256,0 -152.24359,0 -228.84615,0c-76.28205,0 -153.20513,0 -229.48718,0c-76.60256,0 -152.24359,0 -228.84615,0c-76.28205,0 -153.20513,0 -229.48718,0c-76.60256,0 -152.24359,0 -190.38461,0l-37.82051,0l0,221.15385z"/>
   <path stroke="null" fill="#6c6f82" d="m-1.28206,133.28655l37.82051,2.24359c38.14103,1.92308 113.78205,6.41026 190.38461,17.62821c76.28205,11.21795 153.20513,29.16667 229.48718,35.25641c76.60256,5.76923 152.24359,-0.64103 228.84615,-11.21795c76.28205,-10.89744 153.20513,-25.64103 229.48718,-19.87179c76.60256,5.76923 152.24359,32.69231 228.84615,34.29487c76.28205,1.60256 153.20513,-22.11538 229.48718,-24.03846c76.60256,-2.24359 152.24359,16.98718 190.38461,26.60256l37.82051,9.61538l0,-214.74359l-37.82051,0c-38.14103,0 -113.78205,0 -190.38461,0c-76.28205,0 -153.20513,0 -229.48718,0c-76.60256,0 -152.24359,0 -228.84615,0c-76.28205,0 -153.20513,0 -229.48718,0c-76.60256,0 -152.24359,0 -228.84615,0c-76.28205,0 -153.20513,0 -229.48718,0c-76.60256,0 -152.24359,0 -190.38461,0l-37.82051,0l0,144.23077z"/>
   <path stroke="null" fill="#b3b4be" d="m-1.28206,126.87629l37.82051,-6.41026c38.14103,-6.41026 113.78205,-19.23077 190.38461,-25c76.28205,-6.08974 153.20513,-4.80769 229.48718,-4.80769c76.60256,0 152.24359,-1.28205 228.84615,-3.20513c76.28205,-2.24359 153.20513,-5.44872 229.48718,-0.64103c76.60256,4.80769 152.24359,17.62821 228.84615,17.62821c76.28205,0 153.20513,-12.82051 229.48718,-15.0641c76.60256,-1.92308 152.24359,6.41026 190.38461,10.89744l37.82051,4.16667l0,-115.38461l-37.82051,0c-38.14103,0 -113.78205,0 -190.38461,0c-76.28205,0 -153.20513,0 -229.48718,0c-76.60256,0 -152.24359,0 -228.84615,0c-76.28205,0 -153.20513,0 -229.48718,0c-76.60256,0 -152.24359,0 -228.84615,0c-76.28205,0 -153.20513,0 -229.48718,0c-76.60256,0 -152.24359,0 -190.38461,0l-37.82051,0l0,137.82051z"/>
   <path stroke="null" fill="#fefefe" d="m-1.28206,59.5686l37.82051,-4.16667c38.14103,-4.48718 113.78205,-12.82051 190.38461,-16.02564c76.28205,-3.20513 153.20513,-1.28205 229.48718,1.92308c76.60256,3.20513 152.24359,7.69231 228.84615,12.82051c76.28205,5.44872 153.20513,11.85897 229.48718,17.30769c76.60256,5.12821 152.24359,9.61538 228.84615,9.9359c76.28205,0.64103 153.20513,-2.5641 229.48718,-13.78205c76.60256,-11.21795 152.24359,-30.44872 190.38461,-40.0641l37.82051,-9.61538l0,-28.84615l-37.82051,0c-38.14103,0 -113.78205,0 -190.38461,0c-76.28205,0 -153.20513,0 -229.48718,0c-76.60256,0 -152.24359,0 -228.84615,0c-76.28205,0 -153.20513,0 -229.48718,0c-76.60256,0 -152.24359,0 -228.84615,0c-76.28205,0 -153.20513,0 -229.48718,0c-76.60256,0 -152.24359,0 -190.38461,0l-37.82051,0l0,70.51282z"/>
  </g>
 </g>

</svg>