<?xml version="1.0" encoding="UTF-8"?>
<svg fill="none" viewBox="0 0 1500 1800" xmlns="http://www.w3.org/2000/svg">
<g clip-path="url(#a)">
<g class="cloud" opacity=".05">
<rect transform="rotate(180 191.36 914.68)" x="191.36" y="914.68" width="90.471" height="13.24" rx="6.6198" fill="#3D4873"/>
<rect transform="rotate(180 222.99 888.2)" x="222.99" y="888.2" width="145.64" height="13.24" rx="6.6198" fill="#3D4873"/>
<rect transform="rotate(180 248 861.72)" x="248" y="861.72" width="143.43" height="13.24" rx="6.6198" fill="#3D4873"/>
<rect transform="rotate(180 100.89 861.72)" x="100.89" y="861.72" width="30.893" height="13.24" rx="6.6198" fill="#3D4873"/>
<rect transform="rotate(180 214.9 874.96)" x="214.9" y="874.96" width="73.554" height="13.24" rx="6.6198" fill="#3D4873"/>
<rect transform="rotate(180 97.215 914.68)" x="97.215" y="914.68" width="13.24" height="13.24" rx="6.6198" fill="#3D4873"/>
<rect transform="rotate(180 239.91 888.2)" x="239.91" y="888.2" width="13.24" height="13.24" rx="6.6198" fill="#3D4873"/>
<rect transform="rotate(180 187.69 901.44)" x="187.69" y="901.44" width="50.752" height="13.24" rx="6.6198" fill="#3D4873"/>
<rect transform="rotate(180 226.67 901.44)" x="226.67" y="901.44" width="52.959" height="13.24" rx="6.6198" fill="#FEFEFE"/>
<rect transform="rotate(180 161.94 901.44)" x="161.94" y="901.44" width="63.992" height="13.24" rx="6.6198" fill="#FEFEFE"/>
<rect transform="rotate(180 207.54 848.48)" x="207.54" y="848.48" width="50.752" height="13.24" rx="6.6198" fill="#3D4873"/>
<rect transform="rotate(180 246.53 848.48)" x="246.53" y="848.48" width="52.959" height="13.24" rx="6.6198" fill="#FEFEFE"/>
<rect transform="rotate(180 181.8 848.48)" x="181.8" y="848.48" width="63.992" height="13.24" rx="6.6198" fill="#FEFEFE"/>
<rect transform="rotate(180 205.34 835.24)" x="205.34" y="835.24" width="70.612" height="13.24" rx="6.6198" fill="#3D4873"/>
</g>
<g class="cloud" opacity=".05">
<rect transform="rotate(180 248.68 978.02)" x="248.68" y="978.02" width="45.236" height="6.6198" rx="3.3099" fill="#3D4873"/>
<rect transform="rotate(180 264.5 964.78)" x="264.5" y="964.78" width="72.818" height="6.6198" rx="3.3099" fill="#3D4873"/>
<rect transform="rotate(180 277 951.54)" x="277" y="951.54" width="71.715" height="6.6198" rx="3.3099" fill="#3D4873"/>
<rect transform="rotate(180 203.45 951.54)" x="203.45" y="951.54" width="15.446" height="6.6198" rx="3.3099" fill="#3D4873"/>
<rect transform="rotate(180 260.45 958.16)" x="260.45" y="958.16" width="36.777" height="6.6198" rx="3.3099" fill="#3D4873"/>
<rect transform="rotate(180 201.61 978.02)" x="201.61" y="978.02" width="6.6198" height="6.6198" rx="3.3099" fill="#3D4873"/>
<rect transform="rotate(180 272.96 964.78)" x="272.96" y="964.78" width="6.6198" height="6.6198" rx="3.3099" fill="#3D4873"/>
<rect transform="rotate(180 246.84 971.4)" x="246.84" y="971.4" width="25.376" height="6.6198" rx="3.3099" fill="#3D4873"/>
<rect transform="rotate(180 266.34 971.4)" x="266.34" y="971.4" width="26.479" height="6.6198" rx="3.3099" fill="#FEFEFE"/>
<rect transform="rotate(180 233.97 971.4)" x="233.97" y="971.4" width="31.996" height="6.6198" rx="3.3099" fill="#FEFEFE"/>
<rect transform="rotate(180 256.77 944.92)" x="256.77" y="944.92" width="25.376" height="6.6198" rx="3.3099" fill="#3D4873"/>
<rect transform="rotate(180 276.26 944.92)" x="276.26" y="944.92" width="26.479" height="6.6198" rx="3.3099" fill="#FEFEFE"/>
<rect transform="rotate(180 243.9 944.92)" x="243.9" y="944.92" width="31.996" height="6.6198" rx="3.3099" fill="#FEFEFE"/>
<rect transform="rotate(180 255.67 938.3)" x="255.67" y="938.3" width="35.306" height="6.6198" rx="3.3099" fill="#3D4873"/>
</g>
<g class="cloud" opacity=".05">
<rect transform="rotate(180 1220.6 806.69)" x="1220.6" y="806.69" width="66.074" height="9.6694" rx="4.8347" fill="#3D4873"/>
<rect transform="rotate(180 1243.7 787.35)" x="1243.7" y="787.35" width="106.36" height="9.6694" rx="4.8347" fill="#3D4873"/>
<rect transform="rotate(180 1262 768.01)" x="1262" y="768.01" width="104.75" height="9.6694" rx="4.8347" fill="#3D4873"/>
<rect transform="rotate(180 1154.6 768.01)" x="1154.6" y="768.01" width="22.562" height="9.6694" rx="4.8347" fill="#3D4873"/>
<rect transform="rotate(180 1237.8 777.68)" x="1237.8" y="777.68" width="53.719" height="9.6694" rx="4.8347" fill="#3D4873"/>
<rect transform="rotate(180 1151.9 806.69)" x="1151.9" y="806.69" width="9.6694" height="9.6694" rx="4.8347" fill="#3D4873"/>
<rect transform="rotate(180 1256.1 787.35)" x="1256.1" y="787.35" width="9.6694" height="9.6694" rx="4.8347" fill="#3D4873"/>
<rect transform="rotate(180 1218 797.02)" x="1218" y="797.02" width="37.066" height="9.6694" rx="4.8347" fill="#3D4873"/>
<rect transform="rotate(180 1246.4 797.02)" x="1246.4" y="797.02" width="38.678" height="9.6694" rx="4.8347" fill="#FEFEFE"/>
<rect transform="rotate(180 1199.2 797.02)" x="1199.2" y="797.02" width="46.736" height="9.6694" rx="4.8347" fill="#FEFEFE"/>
<rect transform="rotate(180 1232.4 758.34)" x="1232.4" y="758.34" width="37.066" height="9.6694" rx="4.8347" fill="#3D4873"/>
<rect transform="rotate(180 1260.9 758.34)" x="1260.9" y="758.34" width="38.678" height="9.6694" rx="4.8347" fill="#FEFEFE"/>
<rect transform="rotate(180 1213.6 758.34)" x="1213.6" y="758.34" width="46.736" height="9.6694" rx="4.8347" fill="#FEFEFE"/>
<rect transform="rotate(180 1230.8 748.67)" x="1230.8" y="748.67" width="51.57" height="9.6694" rx="4.8347" fill="#3D4873"/>
</g>
<g class="cloud" opacity=".05">
<rect transform="rotate(180 304.41 1318.3)" x="304.41" y="1318.3" width="69.632" height="10.19" rx="5.095" fill="#3D4873"/>
<rect transform="rotate(180 328.75 1298)" x="328.75" y="1298" width="112.09" height="10.19" rx="5.095" fill="#3D4873"/>
<rect transform="rotate(180 348 1277.6)" x="348" y="1277.6" width="110.39" height="10.19" rx="5.095" fill="#3D4873"/>
<rect transform="rotate(180 234.78 1277.6)" x="234.78" y="1277.6" width="23.777" height="10.19" rx="5.095" fill="#3D4873"/>
<rect transform="rotate(180 322.52 1287.8)" x="322.52" y="1287.8" width="56.612" height="10.19" rx="5.095" fill="#3D4873"/>
<rect transform="rotate(180 231.95 1318.3)" x="231.95" y="1318.3" width="10.19" height="10.19" rx="5.095" fill="#3D4873"/>
<rect transform="rotate(180 341.77 1298)" x="341.77" y="1298" width="10.19" height="10.19" rx="5.095" fill="#3D4873"/>
<rect transform="rotate(180 301.58 1308.1)" x="301.58" y="1308.1" width="39.062" height="10.19" rx="5.095" fill="#3D4873"/>
<rect transform="rotate(180 331.58 1308.1)" x="331.58" y="1308.1" width="40.76" height="10.19" rx="5.095" fill="#FEFEFE"/>
<rect transform="rotate(180 281.76 1308.1)" x="281.76" y="1308.1" width="49.252" height="10.19" rx="5.095" fill="#FEFEFE"/>
<rect transform="rotate(180 316.86 1267.4)" x="316.86" y="1267.4" width="39.062" height="10.19" rx="5.095" fill="#3D4873"/>
<rect transform="rotate(180 346.87 1267.4)" x="346.87" y="1267.4" width="40.76" height="10.19" rx="5.095" fill="#FEFEFE"/>
<rect transform="rotate(180 297.05 1267.4)" x="297.05" y="1267.4" width="49.252" height="10.19" rx="5.095" fill="#FEFEFE"/>
<rect transform="rotate(180 315.16 1257.2)" x="315.16" y="1257.2" width="54.347" height="10.19" rx="5.095" fill="#3D4873"/>
</g>
<g class="cloud" opacity=".05">
<rect transform="rotate(180 875.41 1224.3)" x="875.41" y="1224.3" width="69.632" height="10.19" rx="5.095" fill="#3D4873"/>
<rect transform="rotate(180 899.75 1204)" x="899.75" y="1204" width="112.09" height="10.19" rx="5.095" fill="#3D4873"/>
<rect transform="rotate(180 919 1183.6)" x="919" y="1183.6" width="110.39" height="10.19" rx="5.095" fill="#3D4873"/>
<rect transform="rotate(180 805.78 1183.6)" x="805.78" y="1183.6" width="23.777" height="10.19" rx="5.095" fill="#3D4873"/>
<rect transform="rotate(180 893.52 1193.8)" x="893.52" y="1193.8" width="56.612" height="10.19" rx="5.095" fill="#3D4873"/>
<rect transform="rotate(180 802.95 1224.3)" x="802.95" y="1224.3" width="10.19" height="10.19" rx="5.095" fill="#3D4873"/>
<rect transform="rotate(180 912.77 1204)" x="912.77" y="1204" width="10.19" height="10.19" rx="5.095" fill="#3D4873"/>
<rect transform="rotate(180 872.58 1214.1)" x="872.58" y="1214.1" width="39.062" height="10.19" rx="5.095" fill="#3D4873"/>
<rect transform="rotate(180 902.58 1214.1)" x="902.58" y="1214.1" width="40.76" height="10.19" rx="5.095" fill="#FEFEFE"/>
<rect transform="rotate(180 852.76 1214.1)" x="852.76" y="1214.1" width="49.252" height="10.19" rx="5.095" fill="#FEFEFE"/>
<rect transform="rotate(180 887.86 1173.4)" x="887.86" y="1173.4" width="39.062" height="10.19" rx="5.095" fill="#3D4873"/>
<rect transform="rotate(180 917.87 1173.4)" x="917.87" y="1173.4" width="40.76" height="10.19" rx="5.095" fill="#FEFEFE"/>
<rect transform="rotate(180 868.05 1173.4)" x="868.05" y="1173.4" width="49.252" height="10.19" rx="5.095" fill="#FEFEFE"/>
<rect transform="rotate(180 886.16 1163.2)" x="886.16" y="1163.2" width="54.347" height="10.19" rx="5.095" fill="#3D4873"/>
</g>
<g class="cloud" opacity=".05">
<rect x="716.41" y="1192" width="53.368" height="7.8099" rx="3.905" fill="#3D4873"/>
<rect x="697.75" y="1207.6" width="85.909" height="7.8099" rx="3.905" fill="#3D4873"/>
<rect x="683" y="1223.2" width="84.608" height="7.8099" rx="3.905" fill="#3D4873"/>
<rect x="769.78" y="1223.2" width="18.223" height="7.8099" rx="3.905" fill="#3D4873"/>
<rect x="702.52" y="1215.4" width="43.388" height="7.8099" rx="3.905" fill="#3D4873"/>
<rect x="771.95" y="1192" width="7.8099" height="7.8099" rx="3.905" fill="#3D4873"/>
<rect x="687.77" y="1207.6" width="7.8099" height="7.8099" rx="3.905" fill="#3D4873"/>
<rect x="718.58" y="1199.8" width="29.938" height="7.8099" rx="3.905" fill="#3D4873"/>
<rect x="695.58" y="1199.8" width="31.24" height="7.8099" rx="3.905" fill="#FEFEFE"/>
<rect x="733.76" y="1199.8" width="37.748" height="7.8099" rx="3.905" fill="#FEFEFE"/>
<rect x="706.86" y="1231" width="29.938" height="7.8099" rx="3.905" fill="#3D4873"/>
<rect x="683.87" y="1231" width="31.24" height="7.8099" rx="3.905" fill="#FEFEFE"/>
<rect x="722.05" y="1231" width="37.748" height="7.8099" rx="3.905" fill="#FEFEFE"/>
<rect x="708.17" y="1238.9" width="41.653" height="7.8099" rx="3.905" fill="#3D4873"/>
</g>
<g class="cloud" opacity=".05">
<rect transform="matrix(-1 0 0 1 236.7 1332)" width="46.736" height="6.8394" rx="3.4197" fill="#3D4873"/>
<rect transform="matrix(-1 0 0 1 253.03 1345.7)" width="75.234" height="6.8394" rx="3.4197" fill="#3D4873"/>
<rect transform="matrix(-1 0 0 1 265.95 1359.4)" width="74.094" height="6.8394" rx="3.4197" fill="#3D4873"/>
<rect transform="matrix(-1 0 0 1 189.96 1359.4)" width="15.959" height="6.8394" rx="3.4197" fill="#3D4873"/>
<rect transform="matrix(-1 0 0 1 248.85 1352.5)" width="37.997" height="6.8394" rx="3.4197" fill="#3D4873"/>
<rect transform="matrix(-1 0 0 1 188.06 1332)" width="6.8394" height="6.8394" rx="3.4197" fill="#3D4873"/>
<rect transform="matrix(-1 0 0 1 261.77 1345.7)" width="6.8394" height="6.8394" rx="3.4197" fill="#3D4873"/>
<rect transform="matrix(-1 0 0 1 234.8 1338.8)" width="26.218" height="6.8394" rx="3.4197" fill="#3D4873"/>
<rect transform="matrix(-1 0 0 1 254.93 1338.8)" width="27.358" height="6.8394" rx="3.4197" fill="#FEFEFE"/>
<rect transform="matrix(-1 0 0 1 221.5 1338.8)" width="33.057" height="6.8394" rx="3.4197" fill="#FEFEFE"/>
<rect transform="matrix(-1 0 0 1 245.05 1366.2)" width="26.218" height="6.8394" rx="3.4197" fill="#3D4873"/>
<rect transform="matrix(-1 0 0 1 265.19 1366.2)" width="27.358" height="6.8394" rx="3.4197" fill="#FEFEFE"/>
<rect transform="matrix(-1 0 0 1 231.76 1366.2)" width="33.057" height="6.8394" rx="3.4197" fill="#FEFEFE"/>
<rect transform="matrix(-1 0 0 1 243.91 1373)" width="36.477" height="6.8394" rx="3.4197" fill="#3D4873"/>
</g>
<g class="cloud" opacity=".05">
<rect transform="matrix(1 8.7423e-8 8.7423e-8 -1 1342 1344.3)" width="166.2" height="24.322" rx="12.161" fill="#3D4873"/>
<rect transform="matrix(1 8.7423e-8 8.7423e-8 -1 1283.9 1295.6)" width="267.54" height="24.322" rx="12.161" fill="#3D4873"/>
<rect transform="matrix(1 8.7423e-8 8.7423e-8 -1 1238 1247)" width="263.49" height="24.322" rx="12.161" fill="#3D4873"/>
<rect transform="matrix(1 8.7423e-8 8.7423e-8 -1 1298.8 1271.3)" width="135.12" height="24.322" rx="12.161" fill="#3D4873"/>
<rect transform="matrix(1 8.7423e-8 8.7423e-8 -1 1252.9 1295.6)" width="24.322" height="24.322" rx="12.161" fill="#3D4873"/>
<rect transform="matrix(1 8.7423e-8 8.7423e-8 -1 1348.8 1319.9)" width="93.236" height="24.322" rx="12.161" fill="#3D4873"/>
<rect transform="matrix(1 8.7423e-8 8.7423e-8 -1 1277.2 1319.9)" width="97.289" height="24.322" rx="12.161" fill="#FEFEFE"/>
<rect transform="matrix(1 8.7423e-8 8.7423e-8 -1 1396.1 1319.9)" width="117.56" height="24.322" rx="12.161" fill="#FEFEFE"/>
<rect transform="matrix(1 8.7423e-8 8.7423e-8 -1 1312.3 1222.6)" width="93.236" height="24.322" rx="12.161" fill="#3D4873"/>
<rect transform="matrix(1 8.7423e-8 8.7423e-8 -1 1240.7 1222.6)" width="97.289" height="24.322" rx="12.161" fill="#FEFEFE"/>
<rect transform="matrix(1 8.7423e-8 8.7423e-8 -1 1359.6 1222.6)" width="117.56" height="24.322" rx="12.161" fill="#FEFEFE"/>
<rect transform="matrix(1 8.7423e-8 8.7423e-8 -1 1316.4 1198.3)" width="129.72" height="24.322" rx="12.161" fill="#3D4873"/>
</g>
<circle transform="matrix(.86602 .5 .5 -.86602 -23.135 452.14)" r="210" fill="#E4E8F6" fill-opacity=".25"/>
<circle transform="matrix(-.9603 -.27897 -.27897 .9603 205.93 575.88)" r="22.5" fill="#E4E8F6" fill-opacity=".25"/>
<circle transform="matrix(-.9603 -.27897 -.27897 .9603 165.77 617.33)" r="9.5" fill="#E4E8F6" fill-opacity=".25"/>
</g>
<defs>
<clipPath id="a">
<rect width="1500" height="1800" fill="#fff"/>
</clipPath>
</defs>
</svg>
