<svg id="visual" viewBox="0 0 960 100" width="960" height="100" xmlns="http://www.w3.org/2000/svg" xmlns:xlink="http://www.w3.org/1999/xlink" version="1.1"><rect x="0" y="0" width="960" height="100" fill="#FEFEFE"></rect><path d="M0 23L12.3 26.7C24.7 30.3 49.3 37.7 74 38.3C98.7 39 123.3 33 148 31C172.7 29 197.3 31 221.8 33.8C246.3 36.7 270.7 40.3 295.2 42.5C319.7 44.7 344.3 45.3 369 42.2C393.7 39 418.3 32 443 31.3C467.7 30.7 492.3 36.3 517 39C541.7 41.7 566.3 41.3 591 38.3C615.7 35.3 640.3 29.7 664.8 27.7C689.3 25.7 713.7 27.3 738.2 30.3C762.7 33.3 787.3 37.7 812 38C836.7 38.3 861.3 34.7 886 33.5C910.7 32.3 935.3 33.7 947.7 34.3L960 35L960 101L947.7 101C935.3 101 910.7 101 886 101C861.3 101 836.7 101 812 101C787.3 101 762.7 101 738.2 101C713.7 101 689.3 101 664.8 101C640.3 101 615.7 101 591 101C566.3 101 541.7 101 517 101C492.3 101 467.7 101 443 101C418.3 101 393.7 101 369 101C344.3 101 319.7 101 295.2 101C270.7 101 246.3 101 221.8 101C197.3 101 172.7 101 148 101C123.3 101 98.7 101 74 101C49.3 101 24.7 101 12.3 101L0 101Z" fill="#3d4873"></path><path d="M0 45L12.3 46.3C24.7 47.7 49.3 50.3 74 51.5C98.7 52.7 123.3 52.3 148 53.7C172.7 55 197.3 58 221.8 57.7C246.3 57.3 270.7 53.7 295.2 51.7C319.7 49.7 344.3 49.3 369 51.3C393.7 53.3 418.3 57.7 443 58.3C467.7 59 492.3 56 517 56.5C541.7 57 566.3 61 591 63.2C615.7 65.3 640.3 65.7 664.8 63.2C689.3 60.7 713.7 55.3 738.2 52.8C762.7 50.3 787.3 50.7 812 51.7C836.7 52.7 861.3 54.3 886 57C910.7 59.7 935.3 63.3 947.7 65.2L960 67L960 101L947.7 101C935.3 101 910.7 101 886 101C861.3 101 836.7 101 812 101C787.3 101 762.7 101 738.2 101C713.7 101 689.3 101 664.8 101C640.3 101 615.7 101 591 101C566.3 101 541.7 101 517 101C492.3 101 467.7 101 443 101C418.3 101 393.7 101 369 101C344.3 101 319.7 101 295.2 101C270.7 101 246.3 101 221.8 101C197.3 101 172.7 101 148 101C123.3 101 98.7 101 74 101C49.3 101 24.7 101 12.3 101L0 101Z" fill="#2b324a"></path><path d="M0 85L12.3 83.2C24.7 81.3 49.3 77.7 74 75C98.7 72.3 123.3 70.7 148 70.2C172.7 69.7 197.3 70.3 221.8 70.7C246.3 71 270.7 71 295.2 72.3C319.7 73.7 344.3 76.3 369 78.7C393.7 81 418.3 83 443 82.7C467.7 82.3 492.3 79.7 517 76.8C541.7 74 566.3 71 591 70.8C615.7 70.7 640.3 73.3 664.8 73.5C689.3 73.7 713.7 71.3 738.2 70.5C762.7 69.7 787.3 70.3 812 71.5C836.7 72.7 861.3 74.3 886 75.5C910.7 76.7 935.3 77.3 947.7 77.7L960 78L960 101L947.7 101C935.3 101 910.7 101 886 101C861.3 101 836.7 101 812 101C787.3 101 762.7 101 738.2 101C713.7 101 689.3 101 664.8 101C640.3 101 615.7 101 591 101C566.3 101 541.7 101 517 101C492.3 101 467.7 101 443 101C418.3 101 393.7 101 369 101C344.3 101 319.7 101 295.2 101C270.7 101 246.3 101 221.8 101C197.3 101 172.7 101 148 101C123.3 101 98.7 101 74 101C49.3 101 24.7 101 12.3 101L0 101Z" fill="#1b1d25"></path></svg>